<?xml version="1.0" encoding="UTF-8" standalone="no"?>
<!-- Created with Inkscape (http://www.inkscape.org/) -->

<svg
   xmlns:dc="http://purl.org/dc/elements/1.1/"
   xmlns:cc="http://creativecommons.org/ns#"
   xmlns:rdf="http://www.w3.org/1999/02/22-rdf-syntax-ns#"
   xmlns:svg="http://www.w3.org/2000/svg"
   xmlns="http://www.w3.org/2000/svg"
   xmlns:sodipodi="http://sodipodi.sourceforge.net/DTD/sodipodi-0.dtd"
   xmlns:inkscape="http://www.inkscape.org/namespaces/inkscape"
   id="svg2"
   version="1.1"
   inkscape:version="0.91 r13725"
   xml:space="preserve"
   width="32in"
   height="18in"
   viewBox="0 0 2880.0001 1620"
   sodipodi:docname="olfactometer_mount.svg"><metadata
     id="metadata8"><rdf:RDF><cc:Work
         rdf:about=""><dc:format>image/svg+xml</dc:format><dc:type
           rdf:resource="http://purl.org/dc/dcmitype/StillImage" /><dc:title></dc:title></cc:Work></rdf:RDF></metadata><defs
     id="defs6"><clipPath
       clipPathUnits="userSpaceOnUse"
       id="clipPath16"><path
         d="M 0,360 504,360 504,0 0,0 0,360 Z"
         id="path18"
         inkscape:connector-curvature="0" /></clipPath></defs><sodipodi:namedview
     pagecolor="#ffffff"
     bordercolor="#666666"
     borderopacity="1"
     objecttolerance="10"
     gridtolerance="10"
     guidetolerance="10"
     inkscape:pageopacity="0"
     inkscape:pageshadow="2"
     inkscape:window-width="1855"
     inkscape:window-height="1056"
     id="namedview4"
     showgrid="false"
     inkscape:zoom="0.35355339"
     inkscape:cx="797.73807"
     inkscape:cy="1158.0288"
     inkscape:window-x="65"
     inkscape:window-y="24"
     inkscape:window-maximized="1"
     inkscape:current-layer="g10"
     units="in" /><g
     id="g10"
     inkscape:groupmode="layer"
     inkscape:label="solenoid array"
     transform="matrix(1.25,0,0,-1.25,0,1620)"><g
       id="g4170"
       transform="translate(-6.4,1.6)"><g
         transform="matrix(-1.0620628,0,0,-1.0620628,413.07641,1242.4856)"
         id="g20"><path
           inkscape:connector-curvature="0"
           id="path22"
           style="fill:none;stroke:#ef3b39;stroke-width:1;stroke-linecap:butt;stroke-linejoin:miter;stroke-miterlimit:10;stroke-dasharray:none;stroke-opacity:1"
           d="M 0,0 C 0,2.672 2.166,4.838 4.838,4.838 7.51,4.838 9.676,2.672 9.676,0 9.676,-2.672 7.51,-4.838 4.838,-4.838 2.166,-4.838 0,-2.672 0,0 Z" /></g><g
         transform="matrix(-1.0620628,0,0,-1.0620628,386.43071,1242.4856)"
         id="g24"><path
           inkscape:connector-curvature="0"
           id="path26"
           style="fill:none;stroke:#ef3b39;stroke-width:1;stroke-linecap:butt;stroke-linejoin:miter;stroke-miterlimit:10;stroke-dasharray:none;stroke-opacity:1"
           d="M 0,0 C 0,2.672 2.166,4.838 4.838,4.838 7.51,4.838 9.676,2.672 9.676,0 9.676,-2.672 7.51,-4.838 4.838,-4.838 2.166,-4.838 0,-2.672 0,0 Z" /></g><g
         transform="matrix(-1.0620628,0,0,-1.0620628,204.38051,1242.4856)"
         id="g28"><path
           inkscape:connector-curvature="0"
           id="path30"
           style="fill:none;stroke:#ef3b39;stroke-width:1;stroke-linecap:butt;stroke-linejoin:miter;stroke-miterlimit:10;stroke-dasharray:none;stroke-opacity:1"
           d="M 0,0 C 0,2.672 2.166,4.838 4.838,4.838 7.51,4.838 9.676,2.672 9.676,0 9.676,-2.672 7.51,-4.838 4.838,-4.838 2.166,-4.838 0,-2.672 0,0 Z" /></g><g
         transform="matrix(-1.0620628,0,0,-1.0620628,177.73491,1242.4856)"
         id="g32"><path
           inkscape:connector-curvature="0"
           id="path34"
           style="fill:none;stroke:#ef3b39;stroke-width:1;stroke-linecap:butt;stroke-linejoin:miter;stroke-miterlimit:10;stroke-dasharray:none;stroke-opacity:1"
           d="M 0,0 C 0,2.672 2.166,4.838 4.838,4.838 7.51,4.838 9.676,2.672 9.676,0 9.676,-2.672 7.51,-4.838 4.838,-4.838 2.166,-4.838 0,-2.672 0,0 Z" /></g><g
         transform="matrix(-1.0620628,0,0,-1.0620628,308.72851,1242.4856)"
         id="g36"><path
           inkscape:connector-curvature="0"
           id="path38"
           style="fill:none;stroke:#ef3b39;stroke-width:1;stroke-linecap:butt;stroke-linejoin:miter;stroke-miterlimit:10;stroke-dasharray:none;stroke-opacity:1"
           d="M 0,0 C 0,2.672 2.166,4.838 4.838,4.838 7.51,4.838 9.676,2.672 9.676,0 9.676,-2.672 7.51,-4.838 4.838,-4.838 2.166,-4.838 0,-2.672 0,0 Z" /></g><g
         transform="matrix(-1.0620628,0,0,-1.0620628,282.08281,1242.4856)"
         id="g40"><path
           inkscape:connector-curvature="0"
           id="path42"
           style="fill:none;stroke:#ef3b39;stroke-width:1;stroke-linecap:butt;stroke-linejoin:miter;stroke-miterlimit:10;stroke-dasharray:none;stroke-opacity:1"
           d="M 0,0 C 0,2.672 2.166,4.838 4.838,4.838 7.51,4.838 9.676,2.672 9.676,0 9.676,-2.672 7.51,-4.838 4.838,-4.838 2.166,-4.838 0,-2.672 0,0 Z" /></g><g
         transform="matrix(-1.0620628,0,0,-1.0620628,100.03261,1242.4856)"
         id="g44"><path
           inkscape:connector-curvature="0"
           id="path46"
           style="fill:none;stroke:#ef3b39;stroke-width:1;stroke-linecap:butt;stroke-linejoin:miter;stroke-miterlimit:10;stroke-dasharray:none;stroke-opacity:1"
           d="M 0,0 C 0,2.672 2.166,4.838 4.838,4.838 7.51,4.838 9.676,2.672 9.676,0 9.676,-2.672 7.51,-4.838 4.838,-4.838 2.166,-4.838 0,-2.672 0,0 Z" /></g><g
         transform="matrix(-1.0620628,0,0,-1.0620628,73.38691,1242.4856)"
         id="g48"><path
           inkscape:connector-curvature="0"
           id="path50"
           style="fill:none;stroke:#ef3b39;stroke-width:1;stroke-linecap:butt;stroke-linejoin:miter;stroke-miterlimit:10;stroke-dasharray:none;stroke-opacity:1"
           d="M 0,0 C 0,2.672 2.166,4.838 4.838,4.838 7.51,4.838 9.676,2.672 9.676,0 9.676,-2.672 7.51,-4.838 4.838,-4.838 2.166,-4.838 0,-2.672 0,0 Z" /></g><g
         transform="matrix(-1,0,0,-1,255.84815,1205.1508)"
         id="g52"><path
           inkscape:connector-curvature="0"
           id="path54"
           style="fill:none;stroke:#ef3b39;stroke-width:1;stroke-linecap:butt;stroke-linejoin:miter;stroke-miterlimit:10;stroke-dasharray:none;stroke-opacity:1"
           d="m 0,0 c -2.564,-3.134 -4.102,-7.139 -4.102,-11.504 0,-10.041 8.139,-18.18 18.18,-18.18 10.04,0 18.18,8.139 18.18,18.18 0,4.363 -1.537,8.367 -4.1,11.501 L 0,0 Z" /></g><circle
         r="9.2312632"
         transform="scale(-1,1)"
         cy="1044.0696"
         cx="-394.61588"
         id="path4238"
         style="color:#000000;clip-rule:nonzero;display:inline;overflow:visible;visibility:visible;opacity:1;isolation:auto;mix-blend-mode:normal;color-interpolation:sRGB;color-interpolation-filters:linearRGB;solid-color:#000000;solid-opacity:1;fill:none;fill-opacity:1;fill-rule:nonzero;stroke:#ff0000;stroke-width:0.80000001;stroke-linecap:butt;stroke-linejoin:miter;stroke-miterlimit:4;stroke-dasharray:none;stroke-dashoffset:0;stroke-opacity:1;color-rendering:auto;image-rendering:auto;shape-rendering:auto;text-rendering:auto;enable-background:accumulate" /><circle
         transform="scale(-1,1)"
         r="9.2312632"
         cy="1044.0696"
         cx="-81.5718"
         id="path4238-3"
         style="color:#000000;clip-rule:nonzero;display:inline;overflow:visible;visibility:visible;opacity:1;isolation:auto;mix-blend-mode:normal;color-interpolation:sRGB;color-interpolation-filters:linearRGB;solid-color:#000000;solid-opacity:1;fill:none;fill-opacity:1;fill-rule:nonzero;stroke:#ff0000;stroke-width:0.80000001;stroke-linecap:butt;stroke-linejoin:miter;stroke-miterlimit:4;stroke-dasharray:none;stroke-dashoffset:0;stroke-opacity:1;color-rendering:auto;image-rendering:auto;shape-rendering:auto;text-rendering:auto;enable-background:accumulate" /><circle
         transform="scale(-1,1)"
         r="9.2312632"
         cy="1044.0696"
         cx="-185.91794"
         id="path4238-6"
         style="color:#000000;clip-rule:nonzero;display:inline;overflow:visible;visibility:visible;opacity:1;isolation:auto;mix-blend-mode:normal;color-interpolation:sRGB;color-interpolation-filters:linearRGB;solid-color:#000000;solid-opacity:1;fill:none;fill-opacity:1;fill-rule:nonzero;stroke:#ff0000;stroke-width:0.80000001;stroke-linecap:butt;stroke-linejoin:miter;stroke-miterlimit:4;stroke-dasharray:none;stroke-dashoffset:0;stroke-opacity:1;color-rendering:auto;image-rendering:auto;shape-rendering:auto;text-rendering:auto;enable-background:accumulate" /><circle
         transform="scale(-1,1)"
         r="9.2312632"
         cy="1044.0696"
         cx="-290.25415"
         id="path4238-7"
         style="color:#000000;clip-rule:nonzero;display:inline;overflow:visible;visibility:visible;opacity:1;isolation:auto;mix-blend-mode:normal;color-interpolation:sRGB;color-interpolation-filters:linearRGB;solid-color:#000000;solid-opacity:1;fill:none;fill-opacity:1;fill-rule:nonzero;stroke:#ff0000;stroke-width:0.80000001;stroke-linecap:butt;stroke-linejoin:miter;stroke-miterlimit:4;stroke-dasharray:none;stroke-dashoffset:0;stroke-opacity:1;color-rendering:auto;image-rendering:auto;shape-rendering:auto;text-rendering:auto;enable-background:accumulate" /><rect
         transform="scale(-1,1)"
         y="924.51965"
         x="-286.52545"
         height="4.9090457"
         width="16.247629"
         id="rect4353"
         style="color:#000000;clip-rule:nonzero;display:inline;overflow:visible;visibility:visible;opacity:1;isolation:auto;mix-blend-mode:normal;color-interpolation:sRGB;color-interpolation-filters:linearRGB;solid-color:#000000;solid-opacity:1;fill:none;fill-opacity:1;fill-rule:nonzero;stroke:#ff0000;stroke-width:0.76024574;stroke-linecap:butt;stroke-linejoin:miter;stroke-miterlimit:4;stroke-dasharray:none;stroke-dashoffset:0;stroke-opacity:1;color-rendering:auto;image-rendering:auto;shape-rendering:auto;text-rendering:auto;enable-background:accumulate" /><rect
         transform="scale(-1,1)"
         y="967.03931"
         x="-286.52545"
         height="4.9090457"
         width="16.247629"
         id="rect4353-3"
         style="color:#000000;clip-rule:nonzero;display:inline;overflow:visible;visibility:visible;opacity:1;isolation:auto;mix-blend-mode:normal;color-interpolation:sRGB;color-interpolation-filters:linearRGB;solid-color:#000000;solid-opacity:1;fill:none;fill-opacity:1;fill-rule:nonzero;stroke:#ff0000;stroke-width:0.76024574;stroke-linecap:butt;stroke-linejoin:miter;stroke-miterlimit:4;stroke-dasharray:none;stroke-dashoffset:0;stroke-opacity:1;color-rendering:auto;image-rendering:auto;shape-rendering:auto;text-rendering:auto;enable-background:accumulate" /><rect
         transform="scale(-1,1)"
         y="924.51965"
         x="-205.63245"
         height="4.9090457"
         width="16.247629"
         id="rect4353-5"
         style="color:#000000;clip-rule:nonzero;display:inline;overflow:visible;visibility:visible;opacity:1;isolation:auto;mix-blend-mode:normal;color-interpolation:sRGB;color-interpolation-filters:linearRGB;solid-color:#000000;solid-opacity:1;fill:none;fill-opacity:1;fill-rule:nonzero;stroke:#ff0000;stroke-width:0.76024574;stroke-linecap:butt;stroke-linejoin:miter;stroke-miterlimit:4;stroke-dasharray:none;stroke-dashoffset:0;stroke-opacity:1;color-rendering:auto;image-rendering:auto;shape-rendering:auto;text-rendering:auto;enable-background:accumulate" /><rect
         transform="scale(-1,1)"
         y="967.03931"
         x="-205.63245"
         height="4.9090457"
         width="16.247629"
         id="rect4353-3-6"
         style="color:#000000;clip-rule:nonzero;display:inline;overflow:visible;visibility:visible;opacity:1;isolation:auto;mix-blend-mode:normal;color-interpolation:sRGB;color-interpolation-filters:linearRGB;solid-color:#000000;solid-opacity:1;fill:none;fill-opacity:1;fill-rule:nonzero;stroke:#ff0000;stroke-width:0.76024574;stroke-linecap:butt;stroke-linejoin:miter;stroke-miterlimit:4;stroke-dasharray:none;stroke-dashoffset:0;stroke-opacity:1;color-rendering:auto;image-rendering:auto;shape-rendering:auto;text-rendering:auto;enable-background:accumulate" /><path
         inkscape:connector-curvature="0"
         d="m 223.26338,915.11493 0,84.63748 30.39999,0 0,-84.64005 m 196.07854,70.34829 -155.26526,0 m -112.75313,0 -155.15937,0 m -11.9398,12.17875 c 0,-6.6 5.4,-12 12,-12 m 434.939,11.56753 0,277.52687 c 0,6.6 -5.4,12 -12,12 l -422.939,0 c -6.6,0 -12,-5.4 -12,-12 l 0,-278.09597 m 434.939,-10.99843 c 6.59984,-0.0453 12,5.4 12,12 m -238.2992,-82.51733 -36.99023,0 c 0,0 -3.24537,-0.22007 -4.03567,1.45711 -0.67446,1.43136 -0.5136,3.47409 -0.5136,3.47409 l 0,65.41166 m 112.73664,-0.022 0,-66.23823 c 0.0125,0 0.2141,-2.19217 -0.7364,-3.22556 -1.04447,-1.13557 -3.85983,-0.85711 -3.85983,-0.85711 l -36.20091,0"
         style="color:#000000;clip-rule:nonzero;display:inline;overflow:visible;visibility:visible;opacity:1;isolation:auto;mix-blend-mode:normal;color-interpolation:sRGB;color-interpolation-filters:linearRGB;solid-color:#000000;solid-opacity:1;fill:none;fill-opacity:1;fill-rule:nonzero;stroke:#ff0000;stroke-width:0.80000001;stroke-linecap:butt;stroke-linejoin:miter;stroke-miterlimit:4;stroke-dasharray:none;stroke-dashoffset:0;stroke-opacity:1;color-rendering:auto;image-rendering:auto;shape-rendering:auto;text-rendering:auto;enable-background:accumulate"
         id="path4415" /><circle
         transform="scale(-1,1)"
         r="9.2312632"
         cy="1268.9525"
         cx="-443.36414"
         id="path4238-2"
         style="color:#000000;clip-rule:nonzero;display:inline;overflow:visible;visibility:visible;opacity:1;isolation:auto;mix-blend-mode:normal;color-interpolation:sRGB;color-interpolation-filters:linearRGB;solid-color:#000000;solid-opacity:1;fill:none;fill-opacity:1;fill-rule:nonzero;stroke:#ff0000;stroke-width:0.80000001;stroke-linecap:butt;stroke-linejoin:miter;stroke-miterlimit:4;stroke-dasharray:none;stroke-dashoffset:0;stroke-opacity:1;color-rendering:auto;image-rendering:auto;shape-rendering:auto;text-rendering:auto;enable-background:accumulate" /><circle
         transform="scale(-1,1)"
         r="9.2312632"
         cy="1268.9525"
         cx="-33.364155"
         id="path4238-2-1"
         style="color:#000000;clip-rule:nonzero;display:inline;overflow:visible;visibility:visible;opacity:1;isolation:auto;mix-blend-mode:normal;color-interpolation:sRGB;color-interpolation-filters:linearRGB;solid-color:#000000;solid-opacity:1;fill:none;fill-opacity:1;fill-rule:nonzero;stroke:#ff0000;stroke-width:0.80000001;stroke-linecap:butt;stroke-linejoin:miter;stroke-miterlimit:4;stroke-dasharray:none;stroke-dashoffset:0;stroke-opacity:1;color-rendering:auto;image-rendering:auto;shape-rendering:auto;text-rendering:auto;enable-background:accumulate" /><circle
         transform="scale(-1,1)"
         r="9.2312632"
         cy="1197.6761"
         cx="-443.36414"
         id="path4238-2-2"
         style="color:#000000;clip-rule:nonzero;display:inline;overflow:visible;visibility:visible;opacity:1;isolation:auto;mix-blend-mode:normal;color-interpolation:sRGB;color-interpolation-filters:linearRGB;solid-color:#000000;solid-opacity:1;fill:none;fill-opacity:1;fill-rule:nonzero;stroke:#ff0000;stroke-width:0.80000001;stroke-linecap:butt;stroke-linejoin:miter;stroke-miterlimit:4;stroke-dasharray:none;stroke-dashoffset:0;stroke-opacity:1;color-rendering:auto;image-rendering:auto;shape-rendering:auto;text-rendering:auto;enable-background:accumulate" /><circle
         transform="scale(-1,1)"
         r="9.2312632"
         cy="1197.6761"
         cx="-33.364155"
         id="path4238-2-1-7"
         style="color:#000000;clip-rule:nonzero;display:inline;overflow:visible;visibility:visible;opacity:1;isolation:auto;mix-blend-mode:normal;color-interpolation:sRGB;color-interpolation-filters:linearRGB;solid-color:#000000;solid-opacity:1;fill:none;fill-opacity:1;fill-rule:nonzero;stroke:#ff0000;stroke-width:0.80000001;stroke-linecap:butt;stroke-linejoin:miter;stroke-miterlimit:4;stroke-dasharray:none;stroke-dashoffset:0;stroke-opacity:1;color-rendering:auto;image-rendering:auto;shape-rendering:auto;text-rendering:auto;enable-background:accumulate" /><circle
         transform="scale(-1,1)"
         r="9.2312632"
         cy="1004.2117"
         cx="-443.36414"
         id="path4238-2-2-0"
         style="color:#000000;clip-rule:nonzero;display:inline;overflow:visible;visibility:visible;opacity:1;isolation:auto;mix-blend-mode:normal;color-interpolation:sRGB;color-interpolation-filters:linearRGB;solid-color:#000000;solid-opacity:1;fill:none;fill-opacity:1;fill-rule:nonzero;stroke:#ff0000;stroke-width:0.80000001;stroke-linecap:butt;stroke-linejoin:miter;stroke-miterlimit:4;stroke-dasharray:none;stroke-dashoffset:0;stroke-opacity:1;color-rendering:auto;image-rendering:auto;shape-rendering:auto;text-rendering:auto;enable-background:accumulate" /><circle
         transform="scale(-1,1)"
         r="9.2312632"
         cy="1004.2117"
         cx="-33.364155"
         id="path4238-2-1-7-9"
         style="color:#000000;clip-rule:nonzero;display:inline;overflow:visible;visibility:visible;opacity:1;isolation:auto;mix-blend-mode:normal;color-interpolation:sRGB;color-interpolation-filters:linearRGB;solid-color:#000000;solid-opacity:1;fill:none;fill-opacity:1;fill-rule:nonzero;stroke:#ff0000;stroke-width:0.80000001;stroke-linecap:butt;stroke-linejoin:miter;stroke-miterlimit:4;stroke-dasharray:none;stroke-dashoffset:0;stroke-opacity:1;color-rendering:auto;image-rendering:auto;shape-rendering:auto;text-rendering:auto;enable-background:accumulate" /><circle
         transform="scale(-1,1)"
         r="9.2312632"
         cy="1109.4292"
         cx="-443.36414"
         id="path4238-2-2-0-3"
         style="color:#000000;clip-rule:nonzero;display:inline;overflow:visible;visibility:visible;opacity:1;isolation:auto;mix-blend-mode:normal;color-interpolation:sRGB;color-interpolation-filters:linearRGB;solid-color:#000000;solid-opacity:1;fill:none;fill-opacity:1;fill-rule:nonzero;stroke:#ff0000;stroke-width:0.80000001;stroke-linecap:butt;stroke-linejoin:miter;stroke-miterlimit:4;stroke-dasharray:none;stroke-dashoffset:0;stroke-opacity:1;color-rendering:auto;image-rendering:auto;shape-rendering:auto;text-rendering:auto;enable-background:accumulate" /><circle
         transform="scale(-1,1)"
         r="9.2312632"
         cy="1109.4292"
         cx="-33.364155"
         id="path4238-2-1-7-9-6"
         style="color:#000000;clip-rule:nonzero;display:inline;overflow:visible;visibility:visible;opacity:1;isolation:auto;mix-blend-mode:normal;color-interpolation:sRGB;color-interpolation-filters:linearRGB;solid-color:#000000;solid-opacity:1;fill:none;fill-opacity:1;fill-rule:nonzero;stroke:#ff0000;stroke-width:0.80000001;stroke-linecap:butt;stroke-linejoin:miter;stroke-miterlimit:4;stroke-dasharray:none;stroke-dashoffset:0;stroke-opacity:1;color-rendering:auto;image-rendering:auto;shape-rendering:auto;text-rendering:auto;enable-background:accumulate" /></g></g></svg>