<?xml version="1.0" encoding="UTF-8" standalone="no"?>
<!-- Created with Inkscape (http://www.inkscape.org/) -->

<svg
   xmlns:dc="http://purl.org/dc/elements/1.1/"
   xmlns:cc="http://creativecommons.org/ns#"
   xmlns:rdf="http://www.w3.org/1999/02/22-rdf-syntax-ns#"
   xmlns:svg="http://www.w3.org/2000/svg"
   xmlns="http://www.w3.org/2000/svg"
   xmlns:sodipodi="http://sodipodi.sourceforge.net/DTD/sodipodi-0.dtd"
   xmlns:inkscape="http://www.inkscape.org/namespaces/inkscape"
   id="svg2"
   version="1.1"
   inkscape:version="0.91 r13725"
   xml:space="preserve"
   width="630"
   height="450"
   viewBox="0 0 630 450"
   sodipodi:docname="olfactometer_mount.svg"><metadata
     id="metadata8"><rdf:RDF><cc:Work
         rdf:about=""><dc:format>image/svg+xml</dc:format><dc:type
           rdf:resource="http://purl.org/dc/dcmitype/StillImage" /><dc:title></dc:title></cc:Work></rdf:RDF></metadata><defs
     id="defs6"><clipPath
       clipPathUnits="userSpaceOnUse"
       id="clipPath16"><path
         d="M 0,360 504,360 504,0 0,0 0,360 Z"
         id="path18"
         inkscape:connector-curvature="0" /></clipPath></defs><sodipodi:namedview
     pagecolor="#ffffff"
     bordercolor="#666666"
     borderopacity="1"
     objecttolerance="10"
     gridtolerance="10"
     guidetolerance="10"
     inkscape:pageopacity="0"
     inkscape:pageshadow="2"
     inkscape:window-width="1855"
     inkscape:window-height="1056"
     id="namedview4"
     showgrid="false"
     inkscape:zoom="0.70710678"
     inkscape:cx="542.66961"
     inkscape:cy="522.42167"
     inkscape:window-x="65"
     inkscape:window-y="24"
     inkscape:window-maximized="1"
     inkscape:current-layer="g10" /><g
     id="g10"
     inkscape:groupmode="layer"
     inkscape:label="solenoid array"
     transform="matrix(1.25,0,0,-1.25,0,450)"><g
       id="g20"
       transform="matrix(1.0620628,0,0,1.0620628,76.68774,156.0668)"><path
         d="M 0,0 C 0,2.672 2.166,4.838 4.838,4.838 7.51,4.838 9.676,2.672 9.676,0 9.676,-2.672 7.51,-4.838 4.838,-4.838 2.166,-4.838 0,-2.672 0,0 Z"
         style="fill:none;stroke:#ef3b39;stroke-width:1;stroke-linecap:butt;stroke-linejoin:miter;stroke-miterlimit:10;stroke-dasharray:none;stroke-opacity:1"
         id="path22"
         inkscape:connector-curvature="0" /></g><g
       id="g24"
       transform="matrix(1.0620628,0,0,1.0620628,103.33344,156.0668)"><path
         d="M 0,0 C 0,2.672 2.166,4.838 4.838,4.838 7.51,4.838 9.676,2.672 9.676,0 9.676,-2.672 7.51,-4.838 4.838,-4.838 2.166,-4.838 0,-2.672 0,0 Z"
         style="fill:none;stroke:#ef3b39;stroke-width:1;stroke-linecap:butt;stroke-linejoin:miter;stroke-miterlimit:10;stroke-dasharray:none;stroke-opacity:1"
         id="path26"
         inkscape:connector-curvature="0" /></g><g
       id="g28"
       transform="matrix(1.0620628,0,0,1.0620628,285.38364,156.0668)"><path
         d="M 0,0 C 0,2.672 2.166,4.838 4.838,4.838 7.51,4.838 9.676,2.672 9.676,0 9.676,-2.672 7.51,-4.838 4.838,-4.838 2.166,-4.838 0,-2.672 0,0 Z"
         style="fill:none;stroke:#ef3b39;stroke-width:1;stroke-linecap:butt;stroke-linejoin:miter;stroke-miterlimit:10;stroke-dasharray:none;stroke-opacity:1"
         id="path30"
         inkscape:connector-curvature="0" /></g><g
       id="g32"
       transform="matrix(1.0620628,0,0,1.0620628,312.02924,156.0668)"><path
         d="M 0,0 C 0,2.672 2.166,4.838 4.838,4.838 7.51,4.838 9.676,2.672 9.676,0 9.676,-2.672 7.51,-4.838 4.838,-4.838 2.166,-4.838 0,-2.672 0,0 Z"
         style="fill:none;stroke:#ef3b39;stroke-width:1;stroke-linecap:butt;stroke-linejoin:miter;stroke-miterlimit:10;stroke-dasharray:none;stroke-opacity:1"
         id="path34"
         inkscape:connector-curvature="0" /></g><g
       id="g36"
       transform="matrix(1.0620628,0,0,1.0620628,181.03564,156.0668)"><path
         d="M 0,0 C 0,2.672 2.166,4.838 4.838,4.838 7.51,4.838 9.676,2.672 9.676,0 9.676,-2.672 7.51,-4.838 4.838,-4.838 2.166,-4.838 0,-2.672 0,0 Z"
         style="fill:none;stroke:#ef3b39;stroke-width:1;stroke-linecap:butt;stroke-linejoin:miter;stroke-miterlimit:10;stroke-dasharray:none;stroke-opacity:1"
         id="path38"
         inkscape:connector-curvature="0" /></g><g
       id="g40"
       transform="matrix(1.0620628,0,0,1.0620628,207.68134,156.0668)"><path
         d="M 0,0 C 0,2.672 2.166,4.838 4.838,4.838 7.51,4.838 9.676,2.672 9.676,0 9.676,-2.672 7.51,-4.838 4.838,-4.838 2.166,-4.838 0,-2.672 0,0 Z"
         style="fill:none;stroke:#ef3b39;stroke-width:1;stroke-linecap:butt;stroke-linejoin:miter;stroke-miterlimit:10;stroke-dasharray:none;stroke-opacity:1"
         id="path42"
         inkscape:connector-curvature="0" /></g><g
       id="g44"
       transform="matrix(1.0620628,0,0,1.0620628,389.73154,156.0668)"><path
         d="M 0,0 C 0,2.672 2.166,4.838 4.838,4.838 7.51,4.838 9.676,2.672 9.676,0 9.676,-2.672 7.51,-4.838 4.838,-4.838 2.166,-4.838 0,-2.672 0,0 Z"
         style="fill:none;stroke:#ef3b39;stroke-width:1;stroke-linecap:butt;stroke-linejoin:miter;stroke-miterlimit:10;stroke-dasharray:none;stroke-opacity:1"
         id="path46"
         inkscape:connector-curvature="0" /></g><g
       id="g48"
       transform="matrix(1.0620628,0,0,1.0620628,416.37724,156.0668)"><path
         d="M 0,0 C 0,2.672 2.166,4.838 4.838,4.838 7.51,4.838 9.676,2.672 9.676,0 9.676,-2.672 7.51,-4.838 4.838,-4.838 2.166,-4.838 0,-2.672 0,0 Z"
         style="fill:none;stroke:#ef3b39;stroke-width:1;stroke-linecap:butt;stroke-linejoin:miter;stroke-miterlimit:10;stroke-dasharray:none;stroke-opacity:1"
         id="path50"
         inkscape:connector-curvature="0" /></g><g
       id="g52"
       transform="translate(233.916,193.4016)"><path
         d="m 0,0 c -2.564,-3.134 -4.102,-7.139 -4.102,-11.504 0,-10.041 8.139,-18.18 18.18,-18.18 10.04,0 18.18,8.139 18.18,18.18 0,4.363 -1.537,8.367 -4.1,11.501 L 0,0 Z"
         style="fill:none;stroke:#ef3b39;stroke-width:1;stroke-linecap:butt;stroke-linejoin:miter;stroke-miterlimit:10;stroke-dasharray:none;stroke-opacity:1"
         id="path54"
         inkscape:connector-curvature="0" /></g><circle
       style="color:#000000;clip-rule:nonzero;display:inline;overflow:visible;visibility:visible;opacity:1;isolation:auto;mix-blend-mode:normal;color-interpolation:sRGB;color-interpolation-filters:linearRGB;solid-color:#000000;solid-opacity:1;fill:none;fill-opacity:1;fill-rule:nonzero;stroke:#ff0000;stroke-width:0.80000001;stroke-linecap:butt;stroke-linejoin:miter;stroke-miterlimit:4;stroke-dasharray:none;stroke-dashoffset:0;stroke-opacity:1;color-rendering:auto;image-rendering:auto;shape-rendering:auto;text-rendering:auto;enable-background:accumulate"
       id="path4238"
       cx="95.14827"
       cy="-354.48291"
       transform="scale(1,-1)"
       r="9.2312632" /><circle
       style="color:#000000;clip-rule:nonzero;display:inline;overflow:visible;visibility:visible;opacity:1;isolation:auto;mix-blend-mode:normal;color-interpolation:sRGB;color-interpolation-filters:linearRGB;solid-color:#000000;solid-opacity:1;fill:none;fill-opacity:1;fill-rule:nonzero;stroke:#ff0000;stroke-width:0.80000001;stroke-linecap:butt;stroke-linejoin:miter;stroke-miterlimit:4;stroke-dasharray:none;stroke-dashoffset:0;stroke-opacity:1;color-rendering:auto;image-rendering:auto;shape-rendering:auto;text-rendering:auto;enable-background:accumulate"
       id="path4238-3"
       cx="408.19235"
       cy="-354.48291"
       r="9.2312632"
       transform="scale(1,-1)" /><circle
       style="color:#000000;clip-rule:nonzero;display:inline;overflow:visible;visibility:visible;opacity:1;isolation:auto;mix-blend-mode:normal;color-interpolation:sRGB;color-interpolation-filters:linearRGB;solid-color:#000000;solid-opacity:1;fill:none;fill-opacity:1;fill-rule:nonzero;stroke:#ff0000;stroke-width:0.80000001;stroke-linecap:butt;stroke-linejoin:miter;stroke-miterlimit:4;stroke-dasharray:none;stroke-dashoffset:0;stroke-opacity:1;color-rendering:auto;image-rendering:auto;shape-rendering:auto;text-rendering:auto;enable-background:accumulate"
       id="path4238-6"
       cx="303.84622"
       cy="-354.48291"
       r="9.2312632"
       transform="scale(1,-1)" /><circle
       style="color:#000000;clip-rule:nonzero;display:inline;overflow:visible;visibility:visible;opacity:1;isolation:auto;mix-blend-mode:normal;color-interpolation:sRGB;color-interpolation-filters:linearRGB;solid-color:#000000;solid-opacity:1;fill:none;fill-opacity:1;fill-rule:nonzero;stroke:#ff0000;stroke-width:0.80000001;stroke-linecap:butt;stroke-linejoin:miter;stroke-miterlimit:4;stroke-dasharray:none;stroke-dashoffset:0;stroke-opacity:1;color-rendering:auto;image-rendering:auto;shape-rendering:auto;text-rendering:auto;enable-background:accumulate"
       id="path4238-7"
       cx="199.51001"
       cy="-354.48291"
       r="9.2312632"
       transform="scale(1,-1)" /><rect
       style="color:#000000;clip-rule:nonzero;display:inline;overflow:visible;visibility:visible;opacity:1;isolation:auto;mix-blend-mode:normal;color-interpolation:sRGB;color-interpolation-filters:linearRGB;solid-color:#000000;solid-opacity:1;fill:none;fill-opacity:1;fill-rule:nonzero;stroke:#ff0000;stroke-width:0.76024574;stroke-linecap:butt;stroke-linejoin:miter;stroke-miterlimit:4;stroke-dasharray:none;stroke-dashoffset:0;stroke-opacity:1;color-rendering:auto;image-rendering:auto;shape-rendering:auto;text-rendering:auto;enable-background:accumulate"
       id="rect4353"
       width="16.247629"
       height="4.9090457"
       x="203.23871"
       y="-474.03281"
       transform="scale(1,-1)" /><rect
       style="color:#000000;clip-rule:nonzero;display:inline;overflow:visible;visibility:visible;opacity:1;isolation:auto;mix-blend-mode:normal;color-interpolation:sRGB;color-interpolation-filters:linearRGB;solid-color:#000000;solid-opacity:1;fill:none;fill-opacity:1;fill-rule:nonzero;stroke:#ff0000;stroke-width:0.76024574;stroke-linecap:butt;stroke-linejoin:miter;stroke-miterlimit:4;stroke-dasharray:none;stroke-dashoffset:0;stroke-opacity:1;color-rendering:auto;image-rendering:auto;shape-rendering:auto;text-rendering:auto;enable-background:accumulate"
       id="rect4353-3"
       width="16.247629"
       height="4.9090457"
       x="203.23871"
       y="-431.51312"
       transform="scale(1,-1)" /><rect
       style="color:#000000;clip-rule:nonzero;display:inline;overflow:visible;visibility:visible;opacity:1;isolation:auto;mix-blend-mode:normal;color-interpolation:sRGB;color-interpolation-filters:linearRGB;solid-color:#000000;solid-opacity:1;fill:none;fill-opacity:1;fill-rule:nonzero;stroke:#ff0000;stroke-width:0.76024574;stroke-linecap:butt;stroke-linejoin:miter;stroke-miterlimit:4;stroke-dasharray:none;stroke-dashoffset:0;stroke-opacity:1;color-rendering:auto;image-rendering:auto;shape-rendering:auto;text-rendering:auto;enable-background:accumulate"
       id="rect4353-5"
       width="16.247629"
       height="4.9090457"
       x="284.13171"
       y="-474.03281"
       transform="scale(1,-1)" /><rect
       style="color:#000000;clip-rule:nonzero;display:inline;overflow:visible;visibility:visible;opacity:1;isolation:auto;mix-blend-mode:normal;color-interpolation:sRGB;color-interpolation-filters:linearRGB;solid-color:#000000;solid-opacity:1;fill:none;fill-opacity:1;fill-rule:nonzero;stroke:#ff0000;stroke-width:0.76024574;stroke-linecap:butt;stroke-linejoin:miter;stroke-miterlimit:4;stroke-dasharray:none;stroke-dashoffset:0;stroke-opacity:1;color-rendering:auto;image-rendering:auto;shape-rendering:auto;text-rendering:auto;enable-background:accumulate"
       id="rect4353-3-6"
       width="16.247629"
       height="4.9090457"
       x="284.13171"
       y="-431.51312"
       transform="scale(1,-1)" /><path
       id="path4415"
       style="color:#000000;clip-rule:nonzero;display:inline;overflow:visible;visibility:visible;opacity:1;isolation:auto;mix-blend-mode:normal;color-interpolation:sRGB;color-interpolation-filters:linearRGB;solid-color:#000000;solid-opacity:1;fill:none;fill-opacity:1;fill-rule:nonzero;stroke:#ff0000;stroke-width:0.80000001;stroke-linecap:butt;stroke-linejoin:miter;stroke-miterlimit:4;stroke-dasharray:none;stroke-dashoffset:0;stroke-opacity:1;color-rendering:auto;image-rendering:auto;shape-rendering:auto;text-rendering:auto;enable-background:accumulate"
       d="m 266.50077,483.4375 0,-84.63748 -30.39999,0 0,84.64005 m -196.078536,-70.34829 155.265256,0 m 112.75313,0 155.15937,0 m 11.9398,-12.17875 c 0,6.6 -5.4,12 -12,12 m -434.939,-11.56753 0,-277.5269 c 0,-6.6 5.4,-12 12,-12 l 422.939,0 c 6.6,0 12,5.4 12,12 l 0,278.096 m -434.939,10.99843 c -6.599844,0.0453 -12,-5.4 -12,-12 m 238.2992,82.51733 36.99023,0 c 0,0 3.24537,0.22007 4.03567,-1.45711 0.67446,-1.43136 0.5136,-3.47409 0.5136,-3.47409 l 0,-65.41166 m -112.73664,0.022 0,66.23823 c -0.0125,0 -0.2141,2.19217 0.7364,3.22556 1.04447,1.13557 3.85983,0.85711 3.85983,0.85711 l 36.20091,0" /><circle
       style="color:#000000;clip-rule:nonzero;display:inline;overflow:visible;visibility:visible;opacity:1;isolation:auto;mix-blend-mode:normal;color-interpolation:sRGB;color-interpolation-filters:linearRGB;solid-color:#000000;solid-opacity:1;fill:none;fill-opacity:1;fill-rule:nonzero;stroke:#ff0000;stroke-width:0.80000001;stroke-linecap:butt;stroke-linejoin:miter;stroke-miterlimit:4;stroke-dasharray:none;stroke-dashoffset:0;stroke-opacity:1;color-rendering:auto;image-rendering:auto;shape-rendering:auto;text-rendering:auto;enable-background:accumulate"
       id="path4238-2"
       cx="46.400005"
       cy="-129.59995"
       r="9.2312632"
       transform="scale(1,-1)" /><circle
       style="color:#000000;clip-rule:nonzero;display:inline;overflow:visible;visibility:visible;opacity:1;isolation:auto;mix-blend-mode:normal;color-interpolation:sRGB;color-interpolation-filters:linearRGB;solid-color:#000000;solid-opacity:1;fill:none;fill-opacity:1;fill-rule:nonzero;stroke:#ff0000;stroke-width:0.80000001;stroke-linecap:butt;stroke-linejoin:miter;stroke-miterlimit:4;stroke-dasharray:none;stroke-dashoffset:0;stroke-opacity:1;color-rendering:auto;image-rendering:auto;shape-rendering:auto;text-rendering:auto;enable-background:accumulate"
       id="path4238-2-1"
       cx="456.39999"
       cy="-129.59995"
       r="9.2312632"
       transform="scale(1,-1)" /><circle
       style="color:#000000;clip-rule:nonzero;display:inline;overflow:visible;visibility:visible;opacity:1;isolation:auto;mix-blend-mode:normal;color-interpolation:sRGB;color-interpolation-filters:linearRGB;solid-color:#000000;solid-opacity:1;fill:none;fill-opacity:1;fill-rule:nonzero;stroke:#ff0000;stroke-width:0.80000001;stroke-linecap:butt;stroke-linejoin:miter;stroke-miterlimit:4;stroke-dasharray:none;stroke-dashoffset:0;stroke-opacity:1;color-rendering:auto;image-rendering:auto;shape-rendering:auto;text-rendering:auto;enable-background:accumulate"
       id="path4238-2-2"
       cx="46.400005"
       cy="-200.87631"
       r="9.2312632"
       transform="scale(1,-1)" /><circle
       style="color:#000000;clip-rule:nonzero;display:inline;overflow:visible;visibility:visible;opacity:1;isolation:auto;mix-blend-mode:normal;color-interpolation:sRGB;color-interpolation-filters:linearRGB;solid-color:#000000;solid-opacity:1;fill:none;fill-opacity:1;fill-rule:nonzero;stroke:#ff0000;stroke-width:0.80000001;stroke-linecap:butt;stroke-linejoin:miter;stroke-miterlimit:4;stroke-dasharray:none;stroke-dashoffset:0;stroke-opacity:1;color-rendering:auto;image-rendering:auto;shape-rendering:auto;text-rendering:auto;enable-background:accumulate"
       id="path4238-2-1-7"
       cx="456.39999"
       cy="-200.87631"
       r="9.2312632"
       transform="scale(1,-1)" /><circle
       style="color:#000000;clip-rule:nonzero;display:inline;overflow:visible;visibility:visible;opacity:1;isolation:auto;mix-blend-mode:normal;color-interpolation:sRGB;color-interpolation-filters:linearRGB;solid-color:#000000;solid-opacity:1;fill:none;fill-opacity:1;fill-rule:nonzero;stroke:#ff0000;stroke-width:0.80000001;stroke-linecap:butt;stroke-linejoin:miter;stroke-miterlimit:4;stroke-dasharray:none;stroke-dashoffset:0;stroke-opacity:1;color-rendering:auto;image-rendering:auto;shape-rendering:auto;text-rendering:auto;enable-background:accumulate"
       id="path4238-2-2-0"
       cx="46.400005"
       cy="-394.34073"
       r="9.2312632"
       transform="scale(1,-1)" /><circle
       style="color:#000000;clip-rule:nonzero;display:inline;overflow:visible;visibility:visible;opacity:1;isolation:auto;mix-blend-mode:normal;color-interpolation:sRGB;color-interpolation-filters:linearRGB;solid-color:#000000;solid-opacity:1;fill:none;fill-opacity:1;fill-rule:nonzero;stroke:#ff0000;stroke-width:0.80000001;stroke-linecap:butt;stroke-linejoin:miter;stroke-miterlimit:4;stroke-dasharray:none;stroke-dashoffset:0;stroke-opacity:1;color-rendering:auto;image-rendering:auto;shape-rendering:auto;text-rendering:auto;enable-background:accumulate"
       id="path4238-2-1-7-9"
       cx="456.39999"
       cy="-394.34073"
       r="9.2312632"
       transform="scale(1,-1)" /><circle
       style="color:#000000;clip-rule:nonzero;display:inline;overflow:visible;visibility:visible;opacity:1;isolation:auto;mix-blend-mode:normal;color-interpolation:sRGB;color-interpolation-filters:linearRGB;solid-color:#000000;solid-opacity:1;fill:none;fill-opacity:1;fill-rule:nonzero;stroke:#ff0000;stroke-width:0.80000001;stroke-linecap:butt;stroke-linejoin:miter;stroke-miterlimit:4;stroke-dasharray:none;stroke-dashoffset:0;stroke-opacity:1;color-rendering:auto;image-rendering:auto;shape-rendering:auto;text-rendering:auto;enable-background:accumulate"
       id="path4238-2-2-0-3"
       cx="46.400005"
       cy="-289.12323"
       r="9.2312632"
       transform="scale(1,-1)" /><circle
       style="color:#000000;clip-rule:nonzero;display:inline;overflow:visible;visibility:visible;opacity:1;isolation:auto;mix-blend-mode:normal;color-interpolation:sRGB;color-interpolation-filters:linearRGB;solid-color:#000000;solid-opacity:1;fill:none;fill-opacity:1;fill-rule:nonzero;stroke:#ff0000;stroke-width:0.80000001;stroke-linecap:butt;stroke-linejoin:miter;stroke-miterlimit:4;stroke-dasharray:none;stroke-dashoffset:0;stroke-opacity:1;color-rendering:auto;image-rendering:auto;shape-rendering:auto;text-rendering:auto;enable-background:accumulate"
       id="path4238-2-1-7-9-6"
       cx="456.39999"
       cy="-289.12323"
       r="9.2312632"
       transform="scale(1,-1)" /></g></svg>