  0
SECTION
  2
HEADER
  9
$ACADVER
  1
AC1009
  9
$EXTMIN
 10
0.0
 20
0.0
 30
0.0
  9
$EXTMAX
 10
1000.0
 20
1000.0
 30
0.0
  9
$FILLMODE
 70
 0
  9
$SPLFRAME
 70
 1
  0
ENDSEC
  0
SECTION
  2
TABLES
  0
TABLE
  2
LAYER
 70
1
  0
LAYER
  2
0
 70
     0
 62
     7
  6
CONTINUOUS
  0
ENDTAB
  0
ENDSEC
  0
SECTION
  2
ENTITIES
  0
POLYLINE
  8
0
 62
     20
 66
     1
 10
0
 20
0
 30
0.0
 70
     1
 40
1.06206
 41
1.06206
  0
VERTEX
  8
0
 10
0.680393
 20
0.621474
 30
0.0
 40
0.0147508
 41
0.0147508
  0
VERTEX
  8
0
 10
0.685981
 20
0.649306
 30
0.0
 40
0.0147508
 41
0.0147508
  0
VERTEX
  8
0
 10
0.701281
 20
0.671983
 30
0.0
 40
0.0147508
 41
0.0147508
  0
VERTEX
  8
0
 10
0.723958
 20
0.687283
 30
0.0
 40
0.0147508
 41
0.0147508
  0
VERTEX
  8
0
 10
0.751736
 20
0.692871
 30
0.0
 40
0.0147508
 41
0.0147508
  0
VERTEX
  8
0
 10
0.779514
 20
0.687283
 30
0.0
 40
0.0147508
 41
0.0147508
  0
VERTEX
  8
0
 10
0.802192
 20
0.671983
 30
0.0
 40
0.0147508
 41
0.0147508
  0
VERTEX
  8
0
 10
0.817437
 20
0.649306
 30
0.0
 40
0.0147508
 41
0.0147508
  0
VERTEX
  8
0
 10
0.823079
 20
0.621474
 30
0.0
 40
0.0147508
 41
0.0147508
  0
VERTEX
  8
0
 10
0.817437
 20
0.59375
 30
0.0
 40
0.0147508
 41
0.0147508
  0
VERTEX
  8
0
 10
0.802192
 20
0.571072
 30
0.0
 40
0.0147508
 41
0.0147508
  0
VERTEX
  8
0
 10
0.779514
 20
0.555772
 30
0.0
 40
0.0147508
 41
0.0147508
  0
VERTEX
  8
0
 10
0.751736
 20
0.550131
 30
0.0
 40
0.0147508
 41
0.0147508
  0
VERTEX
  8
0
 10
0.723958
 20
0.555772
 30
0.0
 40
0.0147508
 41
0.0147508
  0
VERTEX
  8
0
 10
0.701281
 20
0.571072
 30
0.0
 40
0.0147508
 41
0.0147508
  0
VERTEX
  8
0
 10
0.685981
 20
0.59375
 30
0.0
 40
0.0147508
 41
0.0147508
  0
VERTEX
  8
0
 10
0.680393
 20
0.621474
 30
0.0
 40
0.0147508
 41
0.0147508
  0
SEQEND
 8
0
  0
POLYLINE
  8
0
 62
     20
 66
     1
 10
0
 20
0
 30
0.0
 70
     1
 40
1.06206
 41
1.06206
  0
VERTEX
  8
0
 10
1.05046
 20
0.621474
 30
0.0
 40
0.0147508
 41
0.0147508
  0
VERTEX
  8
0
 10
1.05604
 20
0.649306
 30
0.0
 40
0.0147508
 41
0.0147508
  0
VERTEX
  8
0
 10
1.07134
 20
0.671983
 30
0.0
 40
0.0147508
 41
0.0147508
  0
VERTEX
  8
0
 10
1.09402
 20
0.687283
 30
0.0
 40
0.0147508
 41
0.0147508
  0
VERTEX
  8
0
 10
1.1218
 20
0.692871
 30
0.0
 40
0.0147508
 41
0.0147508
  0
VERTEX
  8
0
 10
1.14958
 20
0.687283
 30
0.0
 40
0.0147508
 41
0.0147508
  0
VERTEX
  8
0
 10
1.17225
 20
0.671983
 30
0.0
 40
0.0147508
 41
0.0147508
  0
VERTEX
  8
0
 10
1.18755
 20
0.649306
 30
0.0
 40
0.0147508
 41
0.0147508
  0
VERTEX
  8
0
 10
1.1932
 20
0.621474
 30
0.0
 40
0.0147508
 41
0.0147508
  0
VERTEX
  8
0
 10
1.18755
 20
0.59375
 30
0.0
 40
0.0147508
 41
0.0147508
  0
VERTEX
  8
0
 10
1.17225
 20
0.571072
 30
0.0
 40
0.0147508
 41
0.0147508
  0
VERTEX
  8
0
 10
1.14958
 20
0.555772
 30
0.0
 40
0.0147508
 41
0.0147508
  0
VERTEX
  8
0
 10
1.1218
 20
0.550131
 30
0.0
 40
0.0147508
 41
0.0147508
  0
VERTEX
  8
0
 10
1.09402
 20
0.555772
 30
0.0
 40
0.0147508
 41
0.0147508
  0
VERTEX
  8
0
 10
1.07134
 20
0.571072
 30
0.0
 40
0.0147508
 41
0.0147508
  0
VERTEX
  8
0
 10
1.05604
 20
0.59375
 30
0.0
 40
0.0147508
 41
0.0147508
  0
VERTEX
  8
0
 10
1.05046
 20
0.621474
 30
0.0
 40
0.0147508
 41
0.0147508
  0
SEQEND
 8
0
  0
POLYLINE
  8
0
 62
     20
 66
     1
 10
0
 20
0
 30
0.0
 70
     1
 40
1.06206
 41
1.06206
  0
VERTEX
  8
0
 10
3.57894
 20
0.621474
 30
0.0
 40
0.0147508
 41
0.0147508
  0
VERTEX
  8
0
 10
3.58453
 20
0.649306
 30
0.0
 40
0.0147508
 41
0.0147508
  0
VERTEX
  8
0
 10
3.59983
 20
0.671983
 30
0.0
 40
0.0147508
 41
0.0147508
  0
VERTEX
  8
0
 10
3.6225
 20
0.687283
 30
0.0
 40
0.0147508
 41
0.0147508
  0
VERTEX
  8
0
 10
3.65028
 20
0.692871
 30
0.0
 40
0.0147508
 41
0.0147508
  0
VERTEX
  8
0
 10
3.67806
 20
0.687283
 30
0.0
 40
0.0147508
 41
0.0147508
  0
VERTEX
  8
0
 10
3.70074
 20
0.671983
 30
0.0
 40
0.0147508
 41
0.0147508
  0
VERTEX
  8
0
 10
3.71604
 20
0.649306
 30
0.0
 40
0.0147508
 41
0.0147508
  0
VERTEX
  8
0
 10
3.72168
 20
0.621474
 30
0.0
 40
0.0147508
 41
0.0147508
  0
VERTEX
  8
0
 10
3.71604
 20
0.59375
 30
0.0
 40
0.0147508
 41
0.0147508
  0
VERTEX
  8
0
 10
3.70074
 20
0.571072
 30
0.0
 40
0.0147508
 41
0.0147508
  0
VERTEX
  8
0
 10
3.67806
 20
0.555772
 30
0.0
 40
0.0147508
 41
0.0147508
  0
VERTEX
  8
0
 10
3.65028
 20
0.550131
 30
0.0
 40
0.0147508
 41
0.0147508
  0
VERTEX
  8
0
 10
3.6225
 20
0.555772
 30
0.0
 40
0.0147508
 41
0.0147508
  0
VERTEX
  8
0
 10
3.59983
 20
0.571072
 30
0.0
 40
0.0147508
 41
0.0147508
  0
VERTEX
  8
0
 10
3.58453
 20
0.59375
 30
0.0
 40
0.0147508
 41
0.0147508
  0
VERTEX
  8
0
 10
3.57894
 20
0.621474
 30
0.0
 40
0.0147508
 41
0.0147508
  0
SEQEND
 8
0
  0
POLYLINE
  8
0
 62
     20
 66
     1
 10
0
 20
0
 30
0.0
 70
     1
 40
1.06206
 41
1.06206
  0
VERTEX
  8
0
 10
3.949
 20
0.621474
 30
0.0
 40
0.0147508
 41
0.0147508
  0
VERTEX
  8
0
 10
3.95458
 20
0.649306
 30
0.0
 40
0.0147508
 41
0.0147508
  0
VERTEX
  8
0
 10
3.96989
 20
0.671983
 30
0.0
 40
0.0147508
 41
0.0147508
  0
VERTEX
  8
0
 10
3.99257
 20
0.687283
 30
0.0
 40
0.0147508
 41
0.0147508
  0
VERTEX
  8
0
 10
4.02035
 20
0.692871
 30
0.0
 40
0.0147508
 41
0.0147508
  0
VERTEX
  8
0
 10
4.04812
 20
0.687283
 30
0.0
 40
0.0147508
 41
0.0147508
  0
VERTEX
  8
0
 10
4.07081
 20
0.671983
 30
0.0
 40
0.0147508
 41
0.0147508
  0
VERTEX
  8
0
 10
4.0861
 20
0.649306
 30
0.0
 40
0.0147508
 41
0.0147508
  0
VERTEX
  8
0
 10
4.09174
 20
0.621474
 30
0.0
 40
0.0147508
 41
0.0147508
  0
VERTEX
  8
0
 10
4.0861
 20
0.59375
 30
0.0
 40
0.0147508
 41
0.0147508
  0
VERTEX
  8
0
 10
4.07081
 20
0.571072
 30
0.0
 40
0.0147508
 41
0.0147508
  0
VERTEX
  8
0
 10
4.04812
 20
0.555772
 30
0.0
 40
0.0147508
 41
0.0147508
  0
VERTEX
  8
0
 10
4.02035
 20
0.550131
 30
0.0
 40
0.0147508
 41
0.0147508
  0
VERTEX
  8
0
 10
3.99257
 20
0.555772
 30
0.0
 40
0.0147508
 41
0.0147508
  0
VERTEX
  8
0
 10
3.96989
 20
0.571072
 30
0.0
 40
0.0147508
 41
0.0147508
  0
VERTEX
  8
0
 10
3.95458
 20
0.59375
 30
0.0
 40
0.0147508
 41
0.0147508
  0
VERTEX
  8
0
 10
3.949
 20
0.621474
 30
0.0
 40
0.0147508
 41
0.0147508
  0
SEQEND
 8
0
  0
POLYLINE
  8
0
 62
     20
 66
     1
 10
0
 20
0
 30
0.0
 70
     1
 40
1.06206
 41
1.06206
  0
VERTEX
  8
0
 10
2.12967
 20
0.621474
 30
0.0
 40
0.0147508
 41
0.0147508
  0
VERTEX
  8
0
 10
2.13525
 20
0.649306
 30
0.0
 40
0.0147508
 41
0.0147508
  0
VERTEX
  8
0
 10
2.15056
 20
0.671983
 30
0.0
 40
0.0147508
 41
0.0147508
  0
VERTEX
  8
0
 10
2.17324
 20
0.687283
 30
0.0
 40
0.0147508
 41
0.0147508
  0
VERTEX
  8
0
 10
2.20101
 20
0.692871
 30
0.0
 40
0.0147508
 41
0.0147508
  0
VERTEX
  8
0
 10
2.22879
 20
0.687283
 30
0.0
 40
0.0147508
 41
0.0147508
  0
VERTEX
  8
0
 10
2.25146
 20
0.671983
 30
0.0
 40
0.0147508
 41
0.0147508
  0
VERTEX
  8
0
 10
2.26676
 20
0.649306
 30
0.0
 40
0.0147508
 41
0.0147508
  0
VERTEX
  8
0
 10
2.2724
 20
0.621474
 30
0.0
 40
0.0147508
 41
0.0147508
  0
VERTEX
  8
0
 10
2.26676
 20
0.59375
 30
0.0
 40
0.0147508
 41
0.0147508
  0
VERTEX
  8
0
 10
2.25146
 20
0.571072
 30
0.0
 40
0.0147508
 41
0.0147508
  0
VERTEX
  8
0
 10
2.22879
 20
0.555772
 30
0.0
 40
0.0147508
 41
0.0147508
  0
VERTEX
  8
0
 10
2.20101
 20
0.550131
 30
0.0
 40
0.0147508
 41
0.0147508
  0
VERTEX
  8
0
 10
2.17324
 20
0.555772
 30
0.0
 40
0.0147508
 41
0.0147508
  0
VERTEX
  8
0
 10
2.15056
 20
0.571072
 30
0.0
 40
0.0147508
 41
0.0147508
  0
VERTEX
  8
0
 10
2.13525
 20
0.59375
 30
0.0
 40
0.0147508
 41
0.0147508
  0
VERTEX
  8
0
 10
2.12967
 20
0.621474
 30
0.0
 40
0.0147508
 41
0.0147508
  0
SEQEND
 8
0
  0
POLYLINE
  8
0
 62
     20
 66
     1
 10
0
 20
0
 30
0.0
 70
     1
 40
1.06206
 41
1.06206
  0
VERTEX
  8
0
 10
2.49972
 20
0.621474
 30
0.0
 40
0.0147508
 41
0.0147508
  0
VERTEX
  8
0
 10
2.50532
 20
0.649306
 30
0.0
 40
0.0147508
 41
0.0147508
  0
VERTEX
  8
0
 10
2.52061
 20
0.671983
 30
0.0
 40
0.0147508
 41
0.0147508
  0
VERTEX
  8
0
 10
2.54329
 20
0.687283
 30
0.0
 40
0.0147508
 41
0.0147508
  0
VERTEX
  8
0
 10
2.57107
 20
0.692871
 30
0.0
 40
0.0147508
 41
0.0147508
  0
VERTEX
  8
0
 10
2.59885
 20
0.687283
 30
0.0
 40
0.0147508
 41
0.0147508
  0
VERTEX
  8
0
 10
2.62153
 20
0.671983
 30
0.0
 40
0.0147508
 41
0.0147508
  0
VERTEX
  8
0
 10
2.63683
 20
0.649306
 30
0.0
 40
0.0147508
 41
0.0147508
  0
VERTEX
  8
0
 10
2.64247
 20
0.621474
 30
0.0
 40
0.0147508
 41
0.0147508
  0
VERTEX
  8
0
 10
2.63683
 20
0.59375
 30
0.0
 40
0.0147508
 41
0.0147508
  0
VERTEX
  8
0
 10
2.62153
 20
0.571072
 30
0.0
 40
0.0147508
 41
0.0147508
  0
VERTEX
  8
0
 10
2.59885
 20
0.555772
 30
0.0
 40
0.0147508
 41
0.0147508
  0
VERTEX
  8
0
 10
2.57107
 20
0.550131
 30
0.0
 40
0.0147508
 41
0.0147508
  0
VERTEX
  8
0
 10
2.54329
 20
0.555772
 30
0.0
 40
0.0147508
 41
0.0147508
  0
VERTEX
  8
0
 10
2.52061
 20
0.571072
 30
0.0
 40
0.0147508
 41
0.0147508
  0
VERTEX
  8
0
 10
2.50532
 20
0.59375
 30
0.0
 40
0.0147508
 41
0.0147508
  0
VERTEX
  8
0
 10
2.49972
 20
0.621474
 30
0.0
 40
0.0147508
 41
0.0147508
  0
SEQEND
 8
0
  0
POLYLINE
  8
0
 62
     20
 66
     1
 10
0
 20
0
 30
0.0
 70
     1
 40
1.06206
 41
1.06206
  0
VERTEX
  8
0
 10
5.02821
 20
0.621474
 30
0.0
 40
0.0147508
 41
0.0147508
  0
VERTEX
  8
0
 10
5.03381
 20
0.649306
 30
0.0
 40
0.0147508
 41
0.0147508
  0
VERTEX
  8
0
 10
5.0491
 20
0.671983
 30
0.0
 40
0.0147508
 41
0.0147508
  0
VERTEX
  8
0
 10
5.07178
 20
0.687283
 30
0.0
 40
0.0147508
 41
0.0147508
  0
VERTEX
  8
0
 10
5.09956
 20
0.692871
 30
0.0
 40
0.0147508
 41
0.0147508
  0
VERTEX
  8
0
 10
5.12733
 20
0.687283
 30
0.0
 40
0.0147508
 41
0.0147508
  0
VERTEX
  8
0
 10
5.15001
 20
0.671983
 30
0.0
 40
0.0147508
 41
0.0147508
  0
VERTEX
  8
0
 10
5.16531
 20
0.649306
 30
0.0
 40
0.0147508
 41
0.0147508
  0
VERTEX
  8
0
 10
5.17096
 20
0.621474
 30
0.0
 40
0.0147508
 41
0.0147508
  0
VERTEX
  8
0
 10
5.16531
 20
0.59375
 30
0.0
 40
0.0147508
 41
0.0147508
  0
VERTEX
  8
0
 10
5.15001
 20
0.571072
 30
0.0
 40
0.0147508
 41
0.0147508
  0
VERTEX
  8
0
 10
5.12733
 20
0.555772
 30
0.0
 40
0.0147508
 41
0.0147508
  0
VERTEX
  8
0
 10
5.09956
 20
0.550131
 30
0.0
 40
0.0147508
 41
0.0147508
  0
VERTEX
  8
0
 10
5.07178
 20
0.555772
 30
0.0
 40
0.0147508
 41
0.0147508
  0
VERTEX
  8
0
 10
5.0491
 20
0.571072
 30
0.0
 40
0.0147508
 41
0.0147508
  0
VERTEX
  8
0
 10
5.03381
 20
0.59375
 30
0.0
 40
0.0147508
 41
0.0147508
  0
VERTEX
  8
0
 10
5.02821
 20
0.621474
 30
0.0
 40
0.0147508
 41
0.0147508
  0
SEQEND
 8
0
  0
POLYLINE
  8
0
 62
     20
 66
     1
 10
0
 20
0
 30
0.0
 70
     1
 40
1.06206
 41
1.06206
  0
VERTEX
  8
0
 10
5.39828
 20
0.621474
 30
0.0
 40
0.0147508
 41
0.0147508
  0
VERTEX
  8
0
 10
5.40386
 20
0.649306
 30
0.0
 40
0.0147508
 41
0.0147508
  0
VERTEX
  8
0
 10
5.41917
 20
0.671983
 30
0.0
 40
0.0147508
 41
0.0147508
  0
VERTEX
  8
0
 10
5.44185
 20
0.687283
 30
0.0
 40
0.0147508
 41
0.0147508
  0
VERTEX
  8
0
 10
5.46967
 20
0.692871
 30
0.0
 40
0.0147508
 41
0.0147508
  0
VERTEX
  8
0
 10
5.4974
 20
0.687283
 30
0.0
 40
0.0147508
 41
0.0147508
  0
VERTEX
  8
0
 10
5.52007
 20
0.671983
 30
0.0
 40
0.0147508
 41
0.0147508
  0
VERTEX
  8
0
 10
5.53538
 20
0.649306
 30
0.0
 40
0.0147508
 41
0.0147508
  0
VERTEX
  8
0
 10
5.54101
 20
0.621474
 30
0.0
 40
0.0147508
 41
0.0147508
  0
VERTEX
  8
0
 10
5.53538
 20
0.59375
 30
0.0
 40
0.0147508
 41
0.0147508
  0
VERTEX
  8
0
 10
5.52007
 20
0.571072
 30
0.0
 40
0.0147508
 41
0.0147508
  0
VERTEX
  8
0
 10
5.4974
 20
0.555772
 30
0.0
 40
0.0147508
 41
0.0147508
  0
VERTEX
  8
0
 10
5.46967
 20
0.550131
 30
0.0
 40
0.0147508
 41
0.0147508
  0
VERTEX
  8
0
 10
5.44185
 20
0.555772
 30
0.0
 40
0.0147508
 41
0.0147508
  0
VERTEX
  8
0
 10
5.41917
 20
0.571072
 30
0.0
 40
0.0147508
 41
0.0147508
  0
VERTEX
  8
0
 10
5.40386
 20
0.59375
 30
0.0
 40
0.0147508
 41
0.0147508
  0
VERTEX
  8
0
 10
5.39828
 20
0.621474
 30
0.0
 40
0.0147508
 41
0.0147508
  0
SEQEND
 8
0
  0
POLYLINE
  8
0
 62
     20
 66
     1
 10
0
 20
0
 30
0.0
 70
     1
 40
1
 41
1
  0
VERTEX
  8
0
 10
2.8641
 20
1.14003
 30
0.0
 40
0.0138889
 41
0.0138889
  0
VERTEX
  8
0
 10
2.82226
 20
1.06657
 30
0.0
 40
0.0138889
 41
0.0138889
  0
VERTEX
  8
0
 10
2.80713
 20
0.980251
 30
0.0
 40
0.0138889
 41
0.0138889
  0
VERTEX
  8
0
 10
2.82693
 20
0.881999
 30
0.0
 40
0.0138889
 41
0.0138889
  0
VERTEX
  8
0
 10
2.88108
 20
0.801704
 30
0.0
 40
0.0138889
 41
0.0138889
  0
VERTEX
  8
0
 10
2.96132
 20
0.747612
 30
0.0
 40
0.0138889
 41
0.0138889
  0
VERTEX
  8
0
 10
3.05963
 20
0.727756
 30
0.0
 40
0.0138889
 41
0.0138889
  0
VERTEX
  8
0
 10
3.15788
 20
0.747612
 30
0.0
 40
0.0138889
 41
0.0138889
  0
VERTEX
  8
0
 10
3.23813
 20
0.801704
 30
0.0
 40
0.0138889
 41
0.0138889
  0
VERTEX
  8
0
 10
3.29226
 20
0.881999
 30
0.0
 40
0.0138889
 41
0.0138889
  0
VERTEX
  8
0
 10
3.31213
 20
0.980251
 30
0.0
 40
0.0138889
 41
0.0138889
  0
VERTEX
  8
0
 10
3.29699
 20
1.06657
 30
0.0
 40
0.0138889
 41
0.0138889
  0
VERTEX
  8
0
 10
3.25521
 20
1.13997
 30
0.0
 40
0.0138889
 41
0.0138889
  0
VERTEX
  8
0
 10
2.8641
 20
1.14003
 30
0.0
 40
0.0138889
 41
0.0138889
  0
SEQEND
 8
0
  0
POLYLINE
  8
0
 62
     20
 66
     1
 10
0
 20
0
 30
0.0
 40
1
 41
1
  0
VERTEX
  8
0
 10
0.173611
 20
4.18881
 30
0.0
 40
0.0138889
 41
0.0138889
  0
VERTEX
  8
0
 10
0.140082
 20
4.1856
 30
0.0
 40
0.0138889
 41
0.0138889
  0
VERTEX
  8
0
 10
0.108887
 20
4.17594
 30
0.0
 40
0.0138889
 41
0.0138889
  0
VERTEX
  8
0
 10
0.0805664
 20
4.16054
 30
0.0
 40
0.0138889
 41
0.0138889
  0
VERTEX
  8
0
 10
0.0558811
 20
4.14008
 30
0.0
 40
0.0138889
 41
0.0138889
  0
VERTEX
  8
0
 10
0.0354818
 20
4.11535
 30
0.0
 40
0.0138889
 41
0.0138889
  0
VERTEX
  8
0
 10
0.0200738
 20
4.08697
 30
0.0
 40
0.0138889
 41
0.0138889
  0
VERTEX
  8
0
 10
0.0103082
 20
4.05567
 30
0.0
 40
0.0138889
 41
0.0138889
  0
VERTEX
  8
0
 10
0.00694444
 20
4.02214
 30
0.0
 40
0.0138889
 41
0.0138889
  0
SEQEND
 8
0
  0
POLYLINE
  8
0
 62
     20
 66
     1
 10
0
 20
0
 30
0.0
 40
1
 41
1
  0
VERTEX
  8
0
 10
0.00694444
 20
4.02815
 30
0.0
 40
0.0138889
 41
0.0138889
  0
VERTEX
  8
0
 10
0.00694444
 20
0.173611
 30
0.0
 40
0.0138889
 41
0.0138889
  0
VERTEX
  8
0
 10
0.0103082
 20
0.140136
 30
0.0
 40
0.0138889
 41
0.0138889
  0
VERTEX
  8
0
 10
0.0200738
 20
0.108941
 30
0.0
 40
0.0138889
 41
0.0138889
  0
VERTEX
  8
0
 10
0.0354818
 20
0.0806207
 30
0.0
 40
0.0138889
 41
0.0138889
  0
VERTEX
  8
0
 10
0.0558811
 20
0.0559353
 30
0.0
 40
0.0138889
 41
0.0138889
  0
VERTEX
  8
0
 10
0.0805664
 20
0.035536
 30
0.0
 40
0.0138889
 41
0.0138889
  0
VERTEX
  8
0
 10
0.108887
 20
0.0201281
 30
0.0
 40
0.0138889
 41
0.0138889
  0
VERTEX
  8
0
 10
0.140082
 20
0.0103624
 30
0.0
 40
0.0138889
 41
0.0138889
  0
VERTEX
  8
0
 10
0.173611
 20
0.00694444
 30
0.0
 40
0.0138889
 41
0.0138889
  0
VERTEX
  8
0
 10
6.04775
 20
0.00694444
 30
0.0
 40
0.0138889
 41
0.0138889
  0
VERTEX
  8
0
 10
6.08122
 20
0.0103624
 30
0.0
 40
0.0138889
 41
0.0138889
  0
VERTEX
  8
0
 10
6.11242
 20
0.0201281
 30
0.0
 40
0.0138889
 41
0.0138889
  0
VERTEX
  8
0
 10
6.14074
 20
0.035536
 30
0.0
 40
0.0138889
 41
0.0138889
  0
VERTEX
  8
0
 10
6.16542
 20
0.0559353
 30
0.0
 40
0.0138889
 41
0.0138889
  0
VERTEX
  8
0
 10
6.18582
 20
0.0806207
 30
0.0
 40
0.0138889
 41
0.0138889
  0
VERTEX
  8
0
 10
6.20122
 20
0.108941
 30
0.0
 40
0.0138889
 41
0.0138889
  0
VERTEX
  8
0
 10
6.21099
 20
0.140136
 30
0.0
 40
0.0138889
 41
0.0138889
  0
VERTEX
  8
0
 10
6.21442
 20
0.173611
 30
0.0
 40
0.0138889
 41
0.0138889
  0
VERTEX
  8
0
 10
6.21442
 20
4.03603
 30
0.0
 40
0.0138889
 41
0.0138889
  0
SEQEND
 8
0
  0
POLYLINE
  8
0
 62
     20
 66
     1
 10
0
 20
0
 30
0.0
 40
1
 41
1
  0
VERTEX
  8
0
 10
6.21442
 20
4.02214
 30
0.0
 40
0.0138889
 41
0.0138889
  0
VERTEX
  8
0
 10
6.21099
 20
4.05561
 30
0.0
 40
0.0138889
 41
0.0138889
  0
VERTEX
  8
0
 10
6.20122
 20
4.08686
 30
0.0
 40
0.0138889
 41
0.0138889
  0
VERTEX
  8
0
 10
6.18582
 20
4.11518
 30
0.0
 40
0.0138889
 41
0.0138889
  0
VERTEX
  8
0
 10
6.16542
 20
4.13986
 30
0.0
 40
0.0138889
 41
0.0138889
  0
VERTEX
  8
0
 10
6.14074
 20
4.16026
 30
0.0
 40
0.0138889
 41
0.0138889
  0
VERTEX
  8
0
 10
6.11242
 20
4.17567
 30
0.0
 40
0.0138889
 41
0.0138889
  0
VERTEX
  8
0
 10
6.08122
 20
4.18544
 30
0.0
 40
0.0138889
 41
0.0138889
  0
VERTEX
  8
0
 10
6.04775
 20
4.18881
 30
0.0
 40
0.0138889
 41
0.0138889
  0
SEQEND
 8
0
  0
POLYLINE
  8
0
 62
     1
 66
     1
 10
0
 20
0
 30
0.0
 70
     1
 40
0.8
 41
0.8
  0
VERTEX
  8
0
 10
1.065
 20
3.37728
 30
0.0
 40
0.0111111
 41
0.0111111
  0
VERTEX
  8
0
 10
1.0549
 20
3.32742
 30
0.0
 40
0.0111111
 41
0.0111111
  0
VERTEX
  8
0
 10
1.0274
 20
3.28668
 30
0.0
 40
0.0111111
 41
0.0111111
  0
VERTEX
  8
0
 10
0.986654
 20
3.25917
 30
0.0
 40
0.0111111
 41
0.0111111
  0
VERTEX
  8
0
 10
0.936794
 20
3.24908
 30
0.0
 40
0.0111111
 41
0.0111111
  0
VERTEX
  8
0
 10
0.886828
 20
3.25917
 30
0.0
 40
0.0111111
 41
0.0111111
  0
VERTEX
  8
0
 10
0.846083
 20
3.28668
 30
0.0
 40
0.0111111
 41
0.0111111
  0
VERTEX
  8
0
 10
0.818576
 20
3.32742
 30
0.0
 40
0.0111111
 41
0.0111111
  0
VERTEX
  8
0
 10
0.808539
 20
3.37728
 30
0.0
 40
0.0111111
 41
0.0111111
  0
VERTEX
  8
0
 10
0.818576
 20
3.42719
 30
0.0
 40
0.0111111
 41
0.0111111
  0
VERTEX
  8
0
 10
0.846083
 20
3.46793
 30
0.0
 40
0.0111111
 41
0.0111111
  0
VERTEX
  8
0
 10
0.886828
 20
3.49544
 30
0.0
 40
0.0111111
 41
0.0111111
  0
VERTEX
  8
0
 10
0.936794
 20
3.50549
 30
0.0
 40
0.0111111
 41
0.0111111
  0
VERTEX
  8
0
 10
0.986654
 20
3.49544
 30
0.0
 40
0.0111111
 41
0.0111111
  0
VERTEX
  8
0
 10
1.0274
 20
3.46793
 30
0.0
 40
0.0111111
 41
0.0111111
  0
VERTEX
  8
0
 10
1.0549
 20
3.42719
 30
0.0
 40
0.0111111
 41
0.0111111
  0
VERTEX
  8
0
 10
1.065
 20
3.37728
 30
0.0
 40
0.0111111
 41
0.0111111
  0
SEQEND
 8
0
  0
POLYLINE
  8
0
 62
     1
 66
     1
 10
0
 20
0
 30
0.0
 70
     1
 40
0.8
 41
0.8
  0
VERTEX
  8
0
 10
5.41282
 20
3.37728
 30
0.0
 40
0.0111111
 41
0.0111111
  0
VERTEX
  8
0
 10
5.40272
 20
3.32742
 30
0.0
 40
0.0111111
 41
0.0111111
  0
VERTEX
  8
0
 10
5.37522
 20
3.28668
 30
0.0
 40
0.0111111
 41
0.0111111
  0
VERTEX
  8
0
 10
5.33447
 20
3.25917
 30
0.0
 40
0.0111111
 41
0.0111111
  0
VERTEX
  8
0
 10
5.28461
 20
3.24908
 30
0.0
 40
0.0111111
 41
0.0111111
  0
VERTEX
  8
0
 10
5.23469
 20
3.25917
 30
0.0
 40
0.0111111
 41
0.0111111
  0
VERTEX
  8
0
 10
5.19396
 20
3.28668
 30
0.0
 40
0.0111111
 41
0.0111111
  0
VERTEX
  8
0
 10
5.16644
 20
3.32742
 30
0.0
 40
0.0111111
 41
0.0111111
  0
VERTEX
  8
0
 10
5.15642
 20
3.37728
 30
0.0
 40
0.0111111
 41
0.0111111
  0
VERTEX
  8
0
 10
5.16644
 20
3.42719
 30
0.0
 40
0.0111111
 41
0.0111111
  0
VERTEX
  8
0
 10
5.19396
 20
3.46793
 30
0.0
 40
0.0111111
 41
0.0111111
  0
VERTEX
  8
0
 10
5.23469
 20
3.49544
 30
0.0
 40
0.0111111
 41
0.0111111
  0
VERTEX
  8
0
 10
5.28461
 20
3.50549
 30
0.0
 40
0.0111111
 41
0.0111111
  0
VERTEX
  8
0
 10
5.33447
 20
3.49544
 30
0.0
 40
0.0111111
 41
0.0111111
  0
VERTEX
  8
0
 10
5.37522
 20
3.46793
 30
0.0
 40
0.0111111
 41
0.0111111
  0
VERTEX
  8
0
 10
5.40272
 20
3.42719
 30
0.0
 40
0.0111111
 41
0.0111111
  0
VERTEX
  8
0
 10
5.41282
 20
3.37728
 30
0.0
 40
0.0111111
 41
0.0111111
  0
SEQEND
 8
0
  0
POLYLINE
  8
0
 62
     1
 66
     1
 10
0
 20
0
 30
0.0
 70
     1
 40
0.8
 41
0.8
  0
VERTEX
  8
0
 10
3.96354
 20
3.37728
 30
0.0
 40
0.0111111
 41
0.0111111
  0
VERTEX
  8
0
 10
3.95344
 20
3.32742
 30
0.0
 40
0.0111111
 41
0.0111111
  0
VERTEX
  8
0
 10
3.92594
 20
3.28668
 30
0.0
 40
0.0111111
 41
0.0111111
  0
VERTEX
  8
0
 10
3.88519
 20
3.25917
 30
0.0
 40
0.0111111
 41
0.0111111
  0
VERTEX
  8
0
 10
3.83535
 20
3.24908
 30
0.0
 40
0.0111111
 41
0.0111111
  0
VERTEX
  8
0
 10
3.78543
 20
3.25917
 30
0.0
 40
0.0111111
 41
0.0111111
  0
VERTEX
  8
0
 10
3.74468
 20
3.28668
 30
0.0
 40
0.0111111
 41
0.0111111
  0
VERTEX
  8
0
 10
3.71718
 20
3.32742
 30
0.0
 40
0.0111111
 41
0.0111111
  0
VERTEX
  8
0
 10
3.70714
 20
3.37728
 30
0.0
 40
0.0111111
 41
0.0111111
  0
VERTEX
  8
0
 10
3.71718
 20
3.42719
 30
0.0
 40
0.0111111
 41
0.0111111
  0
VERTEX
  8
0
 10
3.74468
 20
3.46793
 30
0.0
 40
0.0111111
 41
0.0111111
  0
VERTEX
  8
0
 10
3.78543
 20
3.49544
 30
0.0
 40
0.0111111
 41
0.0111111
  0
VERTEX
  8
0
 10
3.83535
 20
3.50549
 30
0.0
 40
0.0111111
 41
0.0111111
  0
VERTEX
  8
0
 10
3.88519
 20
3.49544
 30
0.0
 40
0.0111111
 41
0.0111111
  0
VERTEX
  8
0
 10
3.92594
 20
3.46793
 30
0.0
 40
0.0111111
 41
0.0111111
  0
VERTEX
  8
0
 10
3.95344
 20
3.42719
 30
0.0
 40
0.0111111
 41
0.0111111
  0
VERTEX
  8
0
 10
3.96354
 20
3.37728
 30
0.0
 40
0.0111111
 41
0.0111111
  0
SEQEND
 8
0
  0
POLYLINE
  8
0
 62
     1
 66
     1
 10
0
 20
0
 30
0.0
 70
     1
 40
0.8
 41
0.8
  0
VERTEX
  8
0
 10
2.51443
 20
3.37728
 30
0.0
 40
0.0111111
 41
0.0111111
  0
VERTEX
  8
0
 10
2.50435
 20
3.32742
 30
0.0
 40
0.0111111
 41
0.0111111
  0
VERTEX
  8
0
 10
2.47683
 20
3.28668
 30
0.0
 40
0.0111111
 41
0.0111111
  0
VERTEX
  8
0
 10
2.43608
 20
3.25917
 30
0.0
 40
0.0111111
 41
0.0111111
  0
VERTEX
  8
0
 10
2.38624
 20
3.24908
 30
0.0
 40
0.0111111
 41
0.0111111
  0
VERTEX
  8
0
 10
2.33632
 20
3.25917
 30
0.0
 40
0.0111111
 41
0.0111111
  0
VERTEX
  8
0
 10
2.29557
 20
3.28668
 30
0.0
 40
0.0111111
 41
0.0111111
  0
VERTEX
  8
0
 10
2.26807
 20
3.32742
 30
0.0
 40
0.0111111
 41
0.0111111
  0
VERTEX
  8
0
 10
2.25803
 20
3.37728
 30
0.0
 40
0.0111111
 41
0.0111111
  0
VERTEX
  8
0
 10
2.26807
 20
3.42719
 30
0.0
 40
0.0111111
 41
0.0111111
  0
VERTEX
  8
0
 10
2.29557
 20
3.46793
 30
0.0
 40
0.0111111
 41
0.0111111
  0
VERTEX
  8
0
 10
2.33632
 20
3.49544
 30
0.0
 40
0.0111111
 41
0.0111111
  0
VERTEX
  8
0
 10
2.38624
 20
3.50549
 30
0.0
 40
0.0111111
 41
0.0111111
  0
VERTEX
  8
0
 10
2.43608
 20
3.49544
 30
0.0
 40
0.0111111
 41
0.0111111
  0
VERTEX
  8
0
 10
2.47683
 20
3.46793
 30
0.0
 40
0.0111111
 41
0.0111111
  0
VERTEX
  8
0
 10
2.50435
 20
3.42719
 30
0.0
 40
0.0111111
 41
0.0111111
  0
VERTEX
  8
0
 10
2.51443
 20
3.37728
 30
0.0
 40
0.0111111
 41
0.0111111
  0
SEQEND
 8
0
  0
POLYLINE
  8
0
 62
     0
 66
     1
 10
0
 20
0
 30
0.0
 40
0.8
 41
0.8
  0
VERTEX
  8
0
 10
0.171115
 20
4.19129
 30
0.0
 40
0.0111111
 41
0.0111111
  0
VERTEX
  8
0
 10
6.04861
 20
4.19129
 30
0.0
 40
0.0111111
 41
0.0111111
  0
SEQEND
 8
0
  0
ENDSEC
  0
EOF
