<?xml version="1.0" encoding="UTF-8" standalone="no"?>
<!-- Created with Inkscape (http://www.inkscape.org/) -->

<svg
   xmlns:dc="http://purl.org/dc/elements/1.1/"
   xmlns:cc="http://creativecommons.org/ns#"
   xmlns:rdf="http://www.w3.org/1999/02/22-rdf-syntax-ns#"
   xmlns:svg="http://www.w3.org/2000/svg"
   xmlns="http://www.w3.org/2000/svg"
   xmlns:sodipodi="http://sodipodi.sourceforge.net/DTD/sodipodi-0.dtd"
   xmlns:inkscape="http://www.inkscape.org/namespaces/inkscape"
   id="svg4136"
   version="1.1"
   inkscape:version="0.91 r13725"
   xml:space="preserve"
   width="296.25958"
   height="87.310776"
   viewBox="0 0 296.2596 87.310775"
   sodipodi:docname="AL_foil_round3.svg"><metadata
     id="metadata4142"><rdf:RDF><cc:Work
         rdf:about=""><dc:format>image/svg+xml</dc:format><dc:type
           rdf:resource="http://purl.org/dc/dcmitype/StillImage" /><dc:title /></cc:Work></rdf:RDF></metadata><defs
     id="defs4140"><clipPath
       clipPathUnits="userSpaceOnUse"
       id="clipPath4172"><path
         d="m 820.992,443.98 -0.398,-39.761 20.433,-0.207 0.403,39.765 -20.438,0.203 z"
         id="path4174"
         inkscape:connector-curvature="0" /></clipPath><clipPath
       clipPathUnits="userSpaceOnUse"
       id="clipPath4188"><path
         d="m 868.094,349.836 23.0117,0 0,45.1992 -23.0117,0 0,-45.1992 z"
         id="path4190"
         inkscape:connector-curvature="0" /></clipPath></defs><sodipodi:namedview
     pagecolor="#ffffff"
     bordercolor="#666666"
     borderopacity="1"
     objecttolerance="10"
     gridtolerance="10"
     guidetolerance="10"
     inkscape:pageopacity="0"
     inkscape:pageshadow="2"
     inkscape:window-width="1867"
     inkscape:window-height="1056"
     id="namedview4138"
     showgrid="false"
     inkscape:zoom="3.2616647"
     inkscape:cx="180.9444"
     inkscape:cy="1.4596089"
     inkscape:window-x="1973"
     inkscape:window-y="24"
     inkscape:window-maximized="1"
     inkscape:current-layer="g4270"
     fit-margin-top="10"
     fit-margin-left="10"
     fit-margin-right="10"
     fit-margin-bottom="10" /><g
     id="g4144"
     inkscape:groupmode="layer"
     inkscape:label="ink_ext_XXXXXX"
     transform="matrix(1.25,0,0,-1.25,-51.931734,66.400822)"><g
       id="g4270"
       transform="translate(-5.8967756,15.262243)"><path
         d="m 275.359,29.6117 c 0.761,0.0028 1.049,-0.3851 1.049,-1.0086 0,-0.2449 0.018,-0.6281 -0.059,-1.084 -0.167,-0.9843 -0.539,-1.7097 -0.781,-2.0648 -0.101,-0.1473 -0.325,-0.1473 -0.425,0 -0.242,0.3551 -0.614,1.0805 -0.781,2.0648 -0.077,0.4559 -0.059,0.8391 -0.059,1.084 0,0.6235 0.263,1.0086 1.056,1.0086 z"
         style="fill:#000000;stroke:none;stroke-width:0.08000001;stroke-linecap:butt;stroke-linejoin:miter;stroke-miterlimit:10;stroke-dasharray:none;stroke-opacity:1;fill-opacity:1"
         id="path4210"
         inkscape:connector-curvature="0" /><path
         d="m 275.359,-19.360944 c 0.761,0.0031 1.049,-0.41406 1.049,-1.08437 0,-0.26367 0.018,-0.67578 -0.059,-1.16602 -0.167,-1.0582 -0.539,-1.837889 -0.781,-2.21992 -0.101,-0.158594 -0.325,-0.158594 -0.425,0 -0.242,0.382031 -0.614,1.16172 -0.781,2.21992 -0.077,0.49024 -0.059,0.90235 -0.059,1.16602 0,0.67031 0.263,1.08437 1.056,1.08437 z"
         style="fill:#000000;stroke:none;stroke-width:0.08000001;stroke-linecap:butt;stroke-linejoin:miter;stroke-miterlimit:10;stroke-dasharray:none;stroke-opacity:1;fill-opacity:1"
         id="path4212"
         inkscape:connector-curvature="0" /><path
         d="m 56.6426,29.8184 c 0.8351,0.0031 1.1508,-0.4227 1.1508,-1.1067 0,-0.2683 0.0199,-0.6887 -0.0649,-1.1887 -0.1836,-1.0792 -0.591,-1.875 -0.8566,-2.2644 -0.1102,-0.1617 -0.3563,-0.1617 -0.4664,0 -0.2657,0.3894 -0.6735,1.1852 -0.8567,2.2644 -0.0836,0.5 -0.0648,0.9204 -0.0648,1.1887 0,0.684 0.2894,1.1067 1.1586,1.1067 z"
         style="fill:#000000;stroke:none;stroke-width:0.008;stroke-linecap:butt;stroke-linejoin:miter;stroke-miterlimit:10;stroke-dasharray:none;stroke-opacity:1;fill-opacity:1"
         id="path4214"
         inkscape:connector-curvature="0" /><path
         d="m 111.56732,30.017574 c 0.8183,0.0031 1.1277,-0.4141 1.1277,-1.0844 0,-0.2633 0.0195,-0.6758 -0.0633,-1.1656 -0.1797,-1.0582 -0.5793,-1.8383 -0.8398,-2.2203 -0.1082,-0.1582 -0.3492,-0.1582 -0.4574,0 -0.2602,0.382 -0.6598,1.1621 -0.8399,2.2203 -0.082,0.4898 -0.0633,0.9023 -0.0633,1.1656 0,0.6703 0.2836,1.0844 1.136,1.0844 z"
         style="fill:#000000;stroke:none;stroke-width:0.08000001;stroke-linecap:butt;stroke-linejoin:miter;stroke-miterlimit:10;stroke-dasharray:none;stroke-opacity:1;fill-opacity:1"
         id="path4216"
         inkscape:connector-curvature="0" /><path
         d="m 166.00114,29.7266 c 0.802,0.0027 1.105,-0.4059 1.105,-1.0629 0,-0.2582 0.019,-0.6621 -0.062,-1.1426 -0.176,-1.0371 -0.568,-1.8012 -0.823,-2.1754 -0.106,-0.1555 -0.342,-0.1555 -0.448,0 -0.255,0.3742 -0.647,1.1387 -0.823,2.1754 -0.081,0.4805 -0.062,0.8844 -0.062,1.1426 0,0.657 0.278,1.0629 1.113,1.0629 z"
         style="fill:#000000;stroke:none;stroke-width:0.08000001;stroke-linecap:butt;stroke-linejoin:miter;stroke-miterlimit:10;stroke-dasharray:none;stroke-opacity:1;fill-opacity:1"
         id="path4218"
         inkscape:connector-curvature="0" /><path
         d="m 220.67971,29.6805 c 0.786,0.0031 1.083,-0.3977 1.083,-1.041 0,-0.2528 0.019,-0.6485 -0.061,-1.1192 -0.172,-1.016 -0.556,-1.7648 -0.806,-2.1312 -0.104,-0.1524 -0.335,-0.1524 -0.439,0 -0.25,0.3668 -0.634,1.1152 -0.806,2.1312 -0.079,0.4707 -0.061,0.8664 -0.061,1.1192 0,0.6433 0.272,1.041 1.09,1.041 z"
         style="fill:#000000;stroke:none;stroke-width:0.08000001;stroke-linecap:butt;stroke-linejoin:miter;stroke-miterlimit:10;stroke-dasharray:none;stroke-opacity:1;fill-opacity:1"
         id="path4220"
         inkscape:connector-curvature="0" /><path
         d="m 56.6426,-19.360944 c 0.8351,0.0031 1.1508,-0.41406 1.1508,-1.08437 0,-0.26367 0.0199,-0.67578 -0.0649,-1.16602 -0.1836,-1.0582 -0.591,-1.837889 -0.8566,-2.21992 -0.1102,-0.158594 -0.3563,-0.158594 -0.4664,0 -0.2657,0.382031 -0.6735,1.16172 -0.8567,2.21992 -0.0836,0.49024 -0.0648,0.90235 -0.0648,1.16602 0,0.67031 0.2894,1.08437 1.1586,1.08437 z"
         style="fill:#000000;stroke:none;stroke-width:0.08000001;stroke-linecap:butt;stroke-linejoin:miter;stroke-miterlimit:10;stroke-dasharray:none;stroke-opacity:1;fill-opacity:1"
         id="path4222"
         inkscape:connector-curvature="0" /><path
         d="m 166.00114,-19.360944 c 0.802,0.0031 1.105,-0.41406 1.105,-1.08437 0,-0.26367 0.019,-0.67578 -0.062,-1.16602 -0.176,-1.0582 -0.568,-1.837889 -0.823,-2.21992 -0.106,-0.158594 -0.342,-0.158594 -0.448,0 -0.255,0.382031 -0.647,1.16172 -0.823,2.21992 -0.081,0.49024 -0.062,0.90235 -0.062,1.16602 0,0.67031 0.278,1.08437 1.113,1.08437 z"
         style="fill:#000000;stroke:none;stroke-width:0.08000001;stroke-linecap:butt;stroke-linejoin:miter;stroke-miterlimit:10;stroke-dasharray:none;stroke-opacity:1;fill-opacity:1"
         id="path4224"
         inkscape:connector-curvature="0" /><path
         d="m 220.68022,-19.360944 c 0.786,0.0031 1.083,-0.41406 1.083,-1.08437 0,-0.26367 0.018,-0.67578 -0.061,-1.16602 -0.173,-1.0582 -0.557,-1.837889 -0.807,-2.21992 -0.103,-0.158594 -0.335,-0.158594 -0.438,0 -0.25,0.382031 -0.634,1.16172 -0.807,2.21992 -0.078,0.49024 -0.061,0.90235 -0.061,1.16602 0,0.67031 0.273,1.08437 1.091,1.08437 z"
         style="fill:#000000;stroke:none;stroke-width:0.08000001;stroke-linecap:butt;stroke-linejoin:miter;stroke-miterlimit:10;stroke-dasharray:none;stroke-opacity:1;fill-opacity:1"
         id="path4226"
         inkscape:connector-curvature="0" /><path
         d="m 111.3218,-19.360944 c 0.83509,0.0031 1.1507,-0.41406 1.1507,-1.08437 0,-0.26367 0.02,-0.67578 -0.0648,-1.16602 -0.1832,-1.0582 -0.59099,-1.837889 -0.8566,-2.21992 -0.1102,-0.158594 -0.3559,-0.158594 -0.46639,0 -0.2657,0.382031 -0.67311,1.16172 -0.8567,2.21992 -0.0836,0.49024 -0.0648,0.90235 -0.0648,1.16602 0,0.67031 0.2894,1.08437 1.15861,1.08437 z"
         style="fill:#000000;stroke:none;stroke-width:0.08000001;stroke-linecap:butt;stroke-linejoin:miter;stroke-miterlimit:10;stroke-dasharray:none;stroke-opacity:1;fill-opacity:1"
         id="path4228"
         inkscape:connector-curvature="0" /></g></g></svg>