<?xml version="1.0" encoding="UTF-8" standalone="no"?>
<!-- Created with Inkscape (http://www.inkscape.org/) -->

<svg
   xmlns:dc="http://purl.org/dc/elements/1.1/"
   xmlns:cc="http://creativecommons.org/ns#"
   xmlns:rdf="http://www.w3.org/1999/02/22-rdf-syntax-ns#"
   xmlns:svg="http://www.w3.org/2000/svg"
   xmlns="http://www.w3.org/2000/svg"
   xmlns:sodipodi="http://sodipodi.sourceforge.net/DTD/sodipodi-0.dtd"
   xmlns:inkscape="http://www.inkscape.org/namespaces/inkscape"
   width="210mm"
   height="297mm"
   viewBox="0 0 744.09448819 1052.3622047"
   id="svg5724"
   version="1.1"
   inkscape:version="0.91 r13725"
   sodipodi:docname="MB_foil_round3.svg">
  <defs
     id="defs5726" />
  <sodipodi:namedview
     id="base"
     pagecolor="#ffffff"
     bordercolor="#666666"
     borderopacity="1.0"
     inkscape:pageopacity="0.0"
     inkscape:pageshadow="2"
     inkscape:zoom="1.979899"
     inkscape:cx="532.85987"
     inkscape:cy="737.75343"
     inkscape:document-units="px"
     inkscape:current-layer="layer1"
     showgrid="false"
     inkscape:window-width="1867"
     inkscape:window-height="1056"
     inkscape:window-x="53"
     inkscape:window-y="24"
     inkscape:window-maximized="1" />
  <metadata
     id="metadata5729">
    <rdf:RDF>
      <cc:Work
         rdf:about="">
        <dc:format>image/svg+xml</dc:format>
        <dc:type
           rdf:resource="http://purl.org/dc/dcmitype/StillImage" />
        <dc:title></dc:title>
      </cc:Work>
    </rdf:RDF>
  </metadata>
  <g
     inkscape:label="Layer 1"
     inkscape:groupmode="layer"
     id="layer1">
    <path
       inkscape:connector-curvature="0"
       id="path4332"
       style="fill:#000000;fill-opacity:1;stroke:none;stroke-width:0.80000001;stroke-linecap:butt;stroke-linejoin:miter;stroke-miterlimit:4;stroke-dasharray:none;stroke-opacity:1"
       d="m 249.36721,210.1458 c 0,0 -0.12012,-0.0215 -0.17578,-0.0323 -0.12549,-0.0269 -0.23583,-0.0991 -0.30957,-0.20363 l -0.064,-0.0904 c -0.0517,-0.0727 -0.0928,-0.15275 -0.12109,-0.23725 -0.0733,-0.17775 -0.15625,-0.39213 -0.24073,-0.63775 -0.0869,-0.25288 -0.14307,-0.44725 -0.20654,-0.666 -0.0552,-0.18988 -0.11719,-0.4135 -0.18164,-0.666 -0.0191,-0.0699 -0.0317,-0.14113 -0.0386,-0.21288 l -0.0747,-0.81637 c -4.9e-4,-0.005 -9.8e-4,-0.008 -9.8e-4,-0.0128 l 0,-0.66938 c 0.001,-0.0215 0.003,-0.043 0.004,-0.064 0.004,-0.021 0.009,-0.0425 0.0132,-0.063 l 0.0557,-0.20263 c 0.005,-0.0195 0.0117,-0.0337 0.0166,-0.0435 0.0103,-0.0205 0.0234,-0.0371 0.0249,-0.039 9.8e-4,-0.001 0.001,-0.002 0.002,-0.002 0.0254,-0.0327 0.0596,-0.0743 0.10351,-0.11813 0.061,-0.062 0.11328,-0.1025 0.14698,-0.12887 0.0562,-0.044 0.1079,-0.085 0.1831,-0.12412 0.0493,-0.0259 0.12256,-0.058 0.21826,-0.0805 0.0527,-0.0128 0.12403,-0.0289 0.20899,-0.0425 0.0708,-0.0113 0.2334,-0.0346 0.44384,-0.0341 l -0.008,0 c 0.21093,-5e-4 0.37305,0.0229 0.44385,0.0341 0.085,0.0136 0.15625,0.0297 0.20898,0.0425 0.0957,0.0225 0.16895,0.0546 0.21827,0.0805 0.0752,0.0391 0.12695,0.0801 0.1831,0.12412 0.0337,0.0264 0.0859,0.0669 0.14697,0.12887 0.0439,0.0439 0.0781,0.0854 0.10351,0.11813 0,0 9.9e-4,0.001 0.002,0.002 0.001,0.002 0.0147,0.0185 0.0249,0.039 0.005,0.01 0.0112,0.024 0.0171,0.0435 l 0.0557,0.20263 c 0.004,0.0205 0.008,0.042 0.0127,0.063 0.001,0.021 0.003,0.0425 0.004,0.064 l 0,0.66938 c 0,0.004 -4.9e-4,0.008 -4.9e-4,0.0128 l -0.0752,0.81637 c -0.006,0.0718 -0.0195,0.143 -0.0386,0.21288 -0.0644,0.2525 -0.12647,0.47612 -0.18164,0.666 -0.0635,0.21875 -0.11964,0.41312 -0.20655,0.666 -0.084,0.24562 -0.16699,0.46 -0.24073,0.63775 -0.0283,0.0845 -0.0693,0.1645 -0.12108,0.23725 l -0.0635,0.0904 c -0.0742,0.1045 -0.18458,0.17676 -0.30958,0.20363 -0.0562,0.0108 -0.16014,0.0323 -0.16014,0.0323 l -0.0239,0 z" />
    <path
       inkscape:connector-curvature="0"
       id="path4334"
       style="fill:#000000;fill-opacity:1;stroke:none;stroke-width:0.80000001;stroke-linecap:butt;stroke-linejoin:miter;stroke-miterlimit:4;stroke-dasharray:none;stroke-opacity:1"
       d="m 329.47222,210.19755 c 0,0 -0.12256,-0.022 -0.17969,-0.0333 -0.12744,-0.0269 -0.24023,-0.10113 -0.31592,-0.207 l -0.0649,-0.0923 c -0.0527,-0.0743 -0.0942,-0.15588 -0.12354,-0.24225 -0.0747,-0.18113 -0.15966,-0.39938 -0.24511,-0.64988 -0.0889,-0.25887 -0.14649,-0.45662 -0.21094,-0.67975 -0.0562,-0.19375 -0.11962,-0.42187 -0.18555,-0.67912 -0.019,-0.0714 -0.0322,-0.14413 -0.0391,-0.21737 l -0.0767,-0.83251 c 0,-0.004 -4.9e-4,-0.009 -4.9e-4,-0.0131 l 0,-0.68312 c 0.001,-0.022 0.003,-0.0435 0.004,-0.0654 0.004,-0.0215 0.009,-0.0425 0.0132,-0.064 l 0.0566,-0.20663 c 0.006,-0.02 0.0122,-0.0346 0.0171,-0.0444 0.0108,-0.0205 0.0239,-0.0381 0.0259,-0.04 4.9e-4,-0.001 0.002,-0.002 0.002,-0.002 0.0264,-0.0336 0.0615,-0.0756 0.10595,-0.12113 0.0625,-0.063 0.11524,-0.1045 0.1499,-0.13125 0.0571,-0.045 0.11035,-0.0865 0.18653,-0.1265 0.0503,-0.0259 0.125,-0.0596 0.22266,-0.082 0.0542,-0.0132 0.12646,-0.0294 0.21338,-0.043 0.0723,-0.0122 0.23778,-0.0356 0.45263,-0.0351 l -0.008,0 c 0.21485,-5e-4 0.38035,0.0229 0.4526,0.0351 0.087,0.0136 0.15925,0.0298 0.21338,0.043 0.0978,0.0224 0.17237,0.0561 0.22225,0.082 0.0766,0.04 0.12987,0.0815 0.187,0.1265 0.0346,0.0267 0.0874,0.0682 0.14987,0.13125 0.0444,0.0455 0.0796,0.0875 0.1055,0.12063 0,0 0.001,0.001 0.002,0.002 0.002,0.002 0.0151,0.0195 0.0254,0.04 0.005,0.01 0.0118,0.0244 0.0171,0.0444 l 0.0571,0.20663 c 0.004,0.0215 0.009,0.0425 0.0132,0.064 0.001,0.0219 0.003,0.0434 0.004,0.0654 l 0,0.68313 c 0,0.004 -5e-4,0.009 -5e-4,0.0131 l -0.0766,0.8325 c -0.007,0.0733 -0.02,0.146 -0.0396,0.21738 -0.0654,0.25725 -0.12888,0.48537 -0.185,0.67912 -0.065,0.22313 -0.12213,0.42088 -0.211,0.67975 -0.0854,0.2505 -0.17038,0.46875 -0.24513,0.64988 -0.0292,0.0864 -0.0707,0.168 -0.1235,0.24225 l -0.0649,0.0923 c -0.0757,0.10587 -0.1885,0.18012 -0.31598,0.207 -0.0571,0.0112 -0.16357,0.0333 -0.16357,0.0333 l -0.0239,0 z" />
    <path
       inkscape:connector-curvature="0"
       id="path4336"
       style="fill:#000000;fill-opacity:1;stroke:none;stroke-width:0.80000001;stroke-linecap:butt;stroke-linejoin:miter;stroke-miterlimit:4;stroke-dasharray:none;stroke-opacity:1"
       d="m 409.57685,210.37557 c 0,0 -0.1245,-0.0225 -0.18263,-0.0337 -0.13037,-0.0274 -0.24513,-0.103 -0.32225,-0.21138 l -0.0664,-0.0937 c -0.0538,-0.0757 -0.0962,-0.15925 -0.12601,-0.24712 -0.0761,-0.1845 -0.16262,-0.40725 -0.24999,-0.66263 -0.0904,-0.26362 -0.14888,-0.46525 -0.21488,-0.69325 -0.0576,-0.19737 -0.122,-0.42975 -0.18887,-0.69237 -0.0201,-0.0724 -0.0332,-0.1465 -0.0401,-0.22175 l -0.0781,-0.84863 c -5.1e-4,-0.004 -5.1e-4,-0.009 -5.1e-4,-0.0131 l 0,-0.69688 c 0.001,-0.0219 0.003,-0.0444 0.005,-0.0664 0.005,-0.022 0.009,-0.0435 0.0138,-0.0654 l 0.0576,-0.2105 c 0.006,-0.0205 0.0125,-0.0351 0.0175,-0.0454 0.0113,-0.021 0.0245,-0.0386 0.0259,-0.0405 9.9e-4,-0.001 0.001,-0.002 0.001,-0.002 0.0269,-0.0341 0.0625,-0.0771 0.10838,-0.123 0.0635,-0.0645 0.11775,-0.107 0.15288,-0.13438 0.0581,-0.0454 0.11224,-0.0879 0.19037,-0.12887 0.0509,-0.0264 0.1275,-0.0605 0.22712,-0.0835 0.0546,-0.0136 0.12888,-0.0298 0.21676,-0.0439 0.0737,-0.0123 0.24275,-0.0361 0.46199,-0.0358 l -0.009,0 c 0.21925,-3.7e-4 0.38825,0.0235 0.46188,0.0358 0.0884,0.0141 0.16262,0.0302 0.21737,0.0439 0.0996,0.023 0.17575,0.0571 0.227,0.0835 0.0781,0.041 0.13238,0.0835 0.1905,0.12887 0.0351,0.0274 0.0892,0.0699 0.15275,0.13438 0.0455,0.0459 0.0811,0.0889 0.10751,0.1225 0,0 0.001,0.001 0.001,0.003 0.002,0.002 0.0151,0.0195 0.0264,0.0405 0.005,0.0103 0.0112,0.0249 0.0176,0.0454 l 0.0576,0.2105 c 0.005,0.0219 0.009,0.0434 0.0131,0.0654 0.002,0.022 0.004,0.0445 0.005,0.0664 l 0,0.69688 c 0,0.004 -5e-4,0.009 -9.9e-4,0.0131 l -0.0776,0.84863 c -0.006,0.0753 -0.0205,0.14937 -0.04,0.22175 -0.0669,0.26262 -0.13188,0.495 -0.189,0.69237 -0.0659,0.228 -0.1245,0.42963 -0.21475,0.69325 -0.088,0.25538 -0.17387,0.47813 -0.2505,0.66263 -0.0299,0.0879 -0.0722,0.17137 -0.1255,0.24712 l -0.0669,0.0937 c -0.0768,0.10838 -0.192,0.184 -0.32187,0.21138 -0.058,0.0112 -0.1665,0.0337 -0.1665,0.0337 l -0.0249,0 z" />
    <path
       inkscape:connector-curvature="0"
       id="path4338"
       style="fill:#000000;fill-opacity:1;stroke:none;stroke-width:0.80000001;stroke-linecap:butt;stroke-linejoin:miter;stroke-miterlimit:4;stroke-dasharray:none;stroke-opacity:1"
       d="m 489.68216,210.27517 c 0,0 -0.126,-0.0225 -0.18463,-0.0337 -0.13125,-0.0277 -0.2475,-0.104 -0.32512,-0.21387 l -0.0669,-0.0942 c -0.0542,-0.0766 -0.0972,-0.16063 -0.1275,-0.2495 -0.0766,-0.1865 -0.164,-0.41163 -0.25237,-0.66938 -0.0914,-0.26612 -0.15038,-0.46975 -0.21688,-0.69975 -0.0581,-0.19925 -0.123,-0.434 -0.19087,-0.69924 -0.02,-0.0733 -0.0337,-0.14788 -0.0405,-0.22363 l -0.0786,-0.85688 c -5e-4,-0.004 -5e-4,-0.009 -5e-4,-0.0136 l 0,-0.70313 c 0.001,-0.022 0.002,-0.0445 0.004,-0.067 0.005,-0.0219 0.009,-0.0439 0.0136,-0.0659 l 0.0581,-0.21288 c 0.006,-0.0205 0.0128,-0.0351 0.0181,-0.0454 0.0113,-0.0215 0.0244,-0.0391 0.0259,-0.0415 10e-4,-0.001 0.002,-0.002 0.002,-0.002 0.0269,-0.0341 0.063,-0.0771 0.109,-0.124 0.0639,-0.065 0.11863,-0.1075 0.15425,-0.13525 0.0591,-0.0464 0.11375,-0.0889 0.19238,-0.13038 0.0512,-0.0269 0.12837,-0.061 0.229,-0.0845 0.0556,-0.0131 0.13037,-0.0298 0.21925,-0.0444 0.0747,-0.0118 0.24512,-0.0366 0.46625,-0.0358 l -0.009,0 c 0.22125,-8.8e-4 0.39212,0.024 0.46625,0.0358 0.0894,0.0146 0.16412,0.0312 0.21925,0.0444 0.10062,0.0235 0.17775,0.0576 0.229,0.0845 0.0791,0.0415 0.13387,0.084 0.19237,0.13038 0.0358,0.0277 0.0904,0.0703 0.15438,0.13525 0.0459,0.0469 0.082,0.0899 0.10887,0.124 5e-4,5e-4 10e-4,0.001 10e-4,0.001 0.002,0.003 0.0161,0.021 0.0273,0.0425 0.005,0.0102 0.0112,0.0249 0.0176,0.0454 l 0.0586,0.21288 c 0.005,0.022 0.009,0.044 0.0131,0.0659 0.001,0.0225 0.002,0.045 0.005,0.067 l 0,0.70313 c 0,0.005 0,0.009 -3.8e-4,0.0136 l -0.0786,0.85688 c -0.007,0.0757 -0.0205,0.15038 -0.0406,0.22363 -0.0674,0.26524 -0.13275,0.49999 -0.19037,0.69924 -0.0669,0.23 -0.126,0.43363 -0.21725,0.69975 -0.0884,0.25775 -0.17538,0.48288 -0.2525,0.66938 -0.0297,0.0889 -0.0727,0.17287 -0.12688,0.2495 l -0.0674,0.0942 c -0.0777,0.10987 -0.19338,0.18612 -0.32475,0.21387 -0.0591,0.0112 -0.1685,0.0337 -0.1685,0.0337 l -0.0249,0 z" />
    <path
       inkscape:connector-curvature="0"
       id="path4340"
       style="fill:#000000;fill-opacity:1;stroke:none;stroke-width:0.80000001;stroke-linecap:butt;stroke-linejoin:miter;stroke-miterlimit:4;stroke-dasharray:none;stroke-opacity:1"
       d="m 249.36721,281.13257 c 0,0 -0.11865,-0.0215 -0.17431,-0.0322 -0.12354,-0.0259 -0.23292,-0.0981 -0.30615,-0.20116 l -0.0635,-0.0894 c -0.0513,-0.0718 -0.0913,-0.15136 -0.11962,-0.23486 -0.0728,-0.17626 -0.15479,-0.38819 -0.23829,-0.63135 -0.0859,-0.25049 -0.1416,-0.44286 -0.20459,-0.65966 -0.0547,-0.1875 -0.11621,-0.40918 -0.17969,-0.65918 -0.019,-0.0688 -0.0317,-0.13965 -0.0386,-0.21094 l -0.0737,-0.80811 c -4.9e-4,-0.004 -9.8e-4,-0.008 -9.8e-4,-0.0127 l 0,-0.66258 c 0.001,-0.0215 0.003,-0.0425 0.004,-0.0635 0.004,-0.021 0.009,-0.0415 0.0127,-0.0625 l 0.0552,-0.2002 c 0.005,-0.0195 0.0117,-0.0337 0.0166,-0.043 0.0103,-0.02 0.0234,-0.0366 0.0249,-0.0391 4.9e-4,-9.7e-4 0.001,-0.001 0.001,-0.001 0.0254,-0.0332 0.0596,-0.0737 0.10303,-0.11816 0.0601,-0.061 0.11182,-0.10108 0.14551,-0.12744 0.0552,-0.0435 0.10694,-0.0835 0.18115,-0.12256 0.0483,-0.0254 0.1211,-0.0576 0.21582,-0.0796 0.0522,-0.0127 0.12304,-0.0283 0.20703,-0.042 0.0698,-0.0113 0.23096,-0.0342 0.43945,-0.0337 l -0.008,0 c 0.2085,-4.8e-4 0.36964,0.0225 0.43946,0.0337 0.084,0.0137 0.15479,0.0293 0.20703,0.042 0.0947,0.022 0.16748,0.0542 0.21582,0.0796 0.0742,0.0391 0.12598,0.0791 0.18115,0.12256 0.0337,0.0264 0.0854,0.0664 0.14551,0.12744 0.0434,0.0444 0.0776,0.085 0.10254,0.11719 0,0 0.001,0.001 0.002,0.002 0.002,0.002 0.0146,0.019 0.0249,0.0391 0.005,0.009 0.0112,0.0234 0.0166,0.043 l 0.0552,0.2002 c 0.004,0.021 0.008,0.0415 0.0127,0.0625 0.001,0.021 0.003,0.042 0.004,0.0635 l 0,0.66259 c 0,0.004 -4.9e-4,0.009 -4.9e-4,0.0127 l -0.0742,0.80811 c -0.007,0.0713 -0.0195,0.14209 -0.0381,0.21094 -0.064,0.25 -0.12549,0.47167 -0.18018,0.65917 -0.0625,0.2168 -0.11865,0.40918 -0.20459,0.65966 -0.083,0.24317 -0.16552,0.45509 -0.2378,0.63135 -0.0283,0.0835 -0.0688,0.16309 -0.12011,0.23487 l -0.063,0.0893 c -0.0732,0.10302 -0.18261,0.17528 -0.30663,0.20116 -0.0557,0.0107 -0.15871,0.0322 -0.15871,0.0322 l -0.0234,0 z" />
    <path
       inkscape:connector-curvature="0"
       id="path4342"
       style="fill:#000000;fill-opacity:1;stroke:none;stroke-width:0.80000001;stroke-linecap:butt;stroke-linejoin:miter;stroke-miterlimit:4;stroke-dasharray:none;stroke-opacity:1"
       d="m 569.78667,210.30105 c 0,0 -0.127,-0.023 -0.1865,-0.0343 -0.13287,-0.0277 -0.25,-0.10488 -0.32812,-0.21525 l -0.0679,-0.0957 c -0.0548,-0.0771 -0.0978,-0.16213 -0.1285,-0.252 -0.0776,-0.18788 -0.1655,-0.415 -0.25488,-0.67525 -0.0917,-0.2685 -0.15187,-0.47463 -0.21925,-0.7065 -0.058,-0.20125 -0.124,-0.438 -0.19237,-0.70563 -0.02,-0.0743 -0.0336,-0.14987 -0.0405,-0.226 l -0.0796,-0.86525 c -5e-4,-0.004 -5e-4,-0.009 -5e-4,-0.0138 l 0,-0.70937 c 0.001,-0.023 0.002,-0.0455 0.005,-0.0679 0.005,-0.0225 0.009,-0.0445 0.0136,-0.067 l 0.0591,-0.21425 c 0.006,-0.021 0.0125,-0.0361 0.0175,-0.0464 0.0113,-0.0215 0.0249,-0.0391 0.0264,-0.0415 10e-4,-0.001 0.003,-0.002 0.003,-0.002 0.0274,-0.0351 0.064,-0.0786 0.11038,-0.126 0.0644,-0.0654 0.11962,-0.10838 0.15575,-0.13675 0.059,-0.0464 0.11424,-0.0894 0.19387,-0.13125 0.0521,-0.0269 0.12988,-0.0616 0.23137,-0.085 0.0556,-0.0138 0.13138,-0.0302 0.22125,-0.045 0.0751,-0.0121 0.2475,-0.037 0.47063,-0.0361 l -0.009,0 c 0.22363,-8.7e-4 0.3955,0.024 0.47062,0.0361 0.0899,0.0148 0.16563,0.0312 0.22176,0.045 0.101,0.0234 0.17874,0.0581 0.231,0.085 0.0795,0.0419 0.13474,0.0849 0.19425,0.13125 0.0356,0.0284 0.0909,0.0714 0.15524,0.13675 0.0469,0.0474 0.083,0.0909 0.10988,0.1255 5e-4,5e-4 0.001,0.001 0.002,0.002 0.001,0.002 0.0151,0.02 0.0264,0.0415 0.005,0.0102 0.0113,0.0254 0.0175,0.0464 l 0.0591,0.21425 c 0.005,0.0225 0.009,0.0445 0.0136,0.067 0.001,0.0224 0.003,0.0449 0.005,0.0679 l 0,0.70937 c 0,0.005 0,0.009 -5e-4,0.0138 l -0.0791,0.86525 c -0.008,0.0761 -0.021,0.15175 -0.041,0.226 -0.0684,0.26763 -0.13425,0.50438 -0.19238,0.70563 -0.0674,0.23187 -0.1275,0.438 -0.21925,0.7065 -0.0894,0.26025 -0.17725,0.48737 -0.25487,0.67525 -0.0303,0.0899 -0.0738,0.17487 -0.1285,0.252 l -0.0679,0.0957 c -0.0781,0.11037 -0.19525,0.1875 -0.32812,0.21525 -0.059,0.0113 -0.16938,0.0343 -0.16938,0.0343 l -0.0254,0 z" />
    <path
       inkscape:connector-curvature="0"
       id="path4350"
       style="fill:#000000;fill-opacity:1;stroke:none;stroke-width:0.80000001;stroke-linecap:butt;stroke-linejoin:miter;stroke-miterlimit:4;stroke-dasharray:none;stroke-opacity:1"
       d="m 329.45093,281.10669 c 0,0 -0.11768,-0.0215 -0.17236,-0.0317 -0.12257,-0.0259 -0.23096,-0.0972 -0.30323,-0.19921 l -0.063,-0.0884 c -0.0503,-0.0718 -0.0903,-0.1499 -0.11865,-0.2329 -0.0718,-0.17384 -0.15282,-0.3838 -0.23535,-0.62451 -0.0855,-0.24854 -0.14062,-0.43849 -0.20263,-0.65284 -0.0542,-0.18604 -0.11475,-0.40528 -0.17823,-0.65284 -0.0186,-0.0684 -0.0312,-0.13817 -0.0376,-0.20849 l -0.0732,-0.8003 c -4.9e-4,-0.004 -4.9e-4,-0.008 -4.9e-4,-0.0122 l 0,-0.65625 c 9.8e-4,-0.021 0.002,-0.042 0.004,-0.063 0.004,-0.0205 0.008,-0.041 0.0127,-0.0615 l 0.0547,-0.19825 c 0.005,-0.0195 0.0113,-0.0332 0.0161,-0.0425 0.0102,-0.02 0.0229,-0.0366 0.0249,-0.0391 4.9e-4,-9.8e-4 0.001,-0.002 0.001,-0.002 0.0249,-0.0322 0.0586,-0.0723 0.10156,-0.11622 0.06,-0.0606 0.11084,-0.1001 0.14404,-0.12597 0.0552,-0.043 0.10596,-0.083 0.17969,-0.12159 0.0478,-0.0249 0.11962,-0.0571 0.21386,-0.0786 0.0518,-0.0127 0.1211,-0.0283 0.2046,-0.0415 0.0693,-0.0112 0.22851,-0.0342 0.43505,-0.0337 l -0.008,0 c 0.20655,-5e-4 0.36573,0.0224 0.4351,0.0337 0.0835,0.0132 0.15325,0.0288 0.205,0.0415 0.0937,0.0215 0.16562,0.0537 0.21388,0.0786 0.0732,0.0386 0.12449,0.0786 0.17924,0.12159 0.0331,0.0259 0.0845,0.0654 0.144,0.12597 0.043,0.0439 0.0766,0.084 0.10163,0.11622 5e-4,4.8e-4 10e-4,9.7e-4 0.002,0.002 0.001,0.002 0.0143,0.019 0.0245,0.0391 0.005,0.009 0.0111,0.0229 0.0165,0.0425 l 0.0542,0.19825 c 0.004,0.0205 0.009,0.041 0.0128,0.0615 0.001,0.021 0.003,0.042 0.004,0.063 l 0,0.65625 c 0,0.004 -5e-4,0.008 -5e-4,0.0122 l -0.0738,0.8003 c -0.006,0.0703 -0.019,0.14014 -0.0376,0.20849 -0.063,0.24756 -0.124,0.4668 -0.17825,0.65284 -0.062,0.21435 -0.11712,0.4043 -0.20212,0.65284 -0.0825,0.24071 -0.164,0.45067 -0.23575,0.62451 -0.0284,0.083 -0.0684,0.16112 -0.11875,0.2329 l -0.0625,0.0884 c -0.0727,0.10205 -0.18113,0.17334 -0.30368,0.19921 -0.0547,0.0102 -0.15673,0.0317 -0.15673,0.0317 l -0.0234,0 z" />
    <path
       inkscape:connector-curvature="0"
       id="path4352"
       style="fill:#000000;fill-opacity:1;stroke:none;stroke-width:0.80000001;stroke-linecap:butt;stroke-linejoin:miter;stroke-miterlimit:4;stroke-dasharray:none;stroke-opacity:1"
       d="m 409.53493,281.03051 c 0,0 -0.11375,-0.0205 -0.167,-0.0308 -0.11912,-0.0254 -0.22412,-0.0942 -0.29437,-0.19336 l -0.0606,-0.0859 c -0.0492,-0.0693 -0.0879,-0.14502 -0.11525,-0.22559 -0.0697,-0.16895 -0.14837,-0.37256 -0.2285,-0.60596 -0.0825,-0.24071 -0.13625,-0.42529 -0.19675,-0.6333 -0.0522,-0.18066 -0.11137,-0.39306 -0.17237,-0.6333 -0.018,-0.0659 -0.0302,-0.13379 -0.0366,-0.20215 l -0.0713,-0.77587 c -5e-4,-0.004 -5e-4,-0.008 -5e-4,-0.0122 l 0,-0.63672 c 0.001,-0.0205 0.002,-0.0405 0.004,-0.061 0.005,-0.02 0.009,-0.0395 0.0125,-0.0596 l 0.0533,-0.19238 c 0.005,-0.0186 0.0112,-0.0322 0.0156,-0.0415 0.01,-0.0191 0.0224,-0.0352 0.0239,-0.0371 10e-4,-9.7e-4 0.001,-0.002 0.002,-0.002 0.0239,-0.0312 0.0566,-0.0703 0.0986,-0.11231 0.0576,-0.0591 0.10687,-0.0972 0.13912,-0.12257 0.0537,-0.042 0.103,-0.0806 0.17438,-0.11767 0.0469,-0.0244 0.11612,-0.0552 0.2075,-0.0767 0.0497,-0.0122 0.11762,-0.0274 0.19825,-0.0401 0.0674,-0.0112 0.22162,-0.0332 0.42237,-0.0327 l -0.007,0 c 0.20075,-4.9e-4 0.355,0.0215 0.42238,0.0327 0.0806,0.0127 0.1485,0.0278 0.19875,0.0401 0.0908,0.0215 0.16062,0.0522 0.207,0.0767 0.0713,0.0371 0.12112,0.0757 0.17437,0.11767 0.0321,0.0254 0.0815,0.0635 0.13963,0.12257 0.0415,0.042 0.0743,0.0811 0.0986,0.11231 0,0 10e-4,0.001 0.001,0.002 0.001,0.002 0.0141,0.0181 0.0239,0.0371 0.005,0.009 0.0113,0.0229 0.0161,0.0415 l 0.0528,0.19238 c 0.005,0.02 0.009,0.0396 0.0125,0.0596 0.001,0.0205 0.002,0.0405 0.005,0.061 l 0,0.63672 c 0,0.004 -5e-4,0.008 -10e-4,0.0122 l -0.0709,0.77587 c -0.006,0.0684 -0.0185,0.13624 -0.0366,0.20215 -0.0615,0.24024 -0.1205,0.45264 -0.17275,0.6333 -0.0606,0.20801 -0.11387,0.39259 -0.19687,0.6333 -0.0795,0.2334 -0.15863,0.43701 -0.2285,0.60596 -0.0269,0.0806 -0.0659,0.15625 -0.11525,0.22559 l -0.0605,0.0859 c -0.0702,0.0991 -0.17525,0.16796 -0.29438,0.19336 -0.0532,0.0103 -0.15187,0.0308 -0.15187,0.0308 l -0.023,0 z" />
    <path
       inkscape:connector-curvature="0"
       id="path4354"
       style="fill:#000000;fill-opacity:1;stroke:none;stroke-width:0.80000001;stroke-linecap:butt;stroke-linejoin:miter;stroke-miterlimit:4;stroke-dasharray:none;stroke-opacity:1"
       d="m 489.61975,281.00513 c 0,0 -0.11275,-0.0205 -0.1655,-0.0308 -0.11825,-0.0249 -0.22175,-0.0933 -0.2915,-0.1914 l -0.0601,-0.0845 c -0.0487,-0.0688 -0.0869,-0.14404 -0.11375,-0.22364 -0.0694,-0.16699 -0.1475,-0.36865 -0.2265,-0.5996 -0.0816,-0.23829 -0.13488,-0.4209 -0.19438,-0.62696 -0.0517,-0.17872 -0.11037,-0.38867 -0.17087,-0.62647 -0.0181,-0.0654 -0.0299,-0.13232 -0.0361,-0.20018 l -0.0709,-0.76808 c 0,-0.004 -5e-4,-0.008 -5e-4,-0.0123 l 0,-0.62989 c 0.001,-0.02 0.002,-0.04 0.004,-0.0601 0.004,-0.02 0.007,-0.0396 0.0113,-0.0591 l 0.0528,-0.19044 c 0.005,-0.0186 0.0113,-0.0322 0.0156,-0.041 0.01,-0.019 0.022,-0.0351 0.0235,-0.0371 8.8e-4,-9.7e-4 0.001,-0.002 0.001,-0.002 0.024,-0.0308 0.0561,-0.0693 0.0976,-0.11083 0.0571,-0.0586 0.106,-0.0967 0.13825,-0.12159 0.0528,-0.041 0.1015,-0.0796 0.17238,-0.11621 0.0459,-0.0244 0.11474,-0.0547 0.20499,-0.0757 0.0499,-0.0122 0.11675,-0.0269 0.19638,-0.04 0.0669,-0.0108 0.21975,-0.0327 0.41788,-0.0322 l -0.007,0 c 0.19825,-5e-4 0.351,0.0215 0.4175,0.0322 0.08,0.0132 0.147,0.0278 0.19674,0.04 0.0899,0.021 0.15863,0.0513 0.20513,0.0757 0.0708,0.0366 0.11962,0.0752 0.17225,0.11621 0.0317,0.0249 0.0806,0.063 0.13825,0.12159 0.0415,0.0415 0.0738,0.0801 0.0971,0.11083 5.1e-4,4.9e-4 0.001,0.002 0.003,0.002 0.001,0.002 0.0136,0.0181 0.0234,0.0371 0.005,0.009 0.0113,0.0225 0.0161,0.041 l 0.0522,0.19044 c 0.004,0.0195 0.009,0.0391 0.0125,0.0591 0.001,0.02 0.002,0.04 0.004,0.0601 l 0,0.62989 c 0,0.004 0,0.008 -5e-4,0.0123 l -0.0702,0.76808 c -0.006,0.0679 -0.0186,0.13476 -0.0361,0.20018 -0.0611,0.2378 -0.11913,0.44775 -0.17087,0.62647 -0.0601,0.20606 -0.11288,0.38867 -0.19488,0.62696 -0.0791,0.23095 -0.15725,0.43261 -0.22613,0.5996 -0.0267,0.0796 -0.0654,0.15479 -0.11425,0.22364 l -0.06,0.0845 c -0.0694,0.0981 -0.17337,0.1665 -0.291,0.1914 -0.0528,0.0102 -0.15087,0.0308 -0.15087,0.0308 l -0.022,0 z" />
    <path
       inkscape:connector-curvature="0"
       id="path4356"
       style="fill:#000000;fill-opacity:1;stroke:none;stroke-width:0.80000001;stroke-linecap:butt;stroke-linejoin:miter;stroke-miterlimit:4;stroke-dasharray:none;stroke-opacity:1"
       d="m 569.70367,280.97925 c 0,0 -0.11187,-0.02 -0.16413,-0.0298 -0.11612,-0.0249 -0.21925,-0.0923 -0.28799,-0.18945 l -0.0596,-0.084 c -0.0479,-0.0679 -0.0859,-0.14208 -0.11275,-0.22118 -0.0679,-0.16504 -0.1455,-0.36475 -0.22363,-0.59326 -0.0811,-0.23584 -0.13337,-0.4165 -0.19237,-0.62013 -0.0519,-0.17675 -0.10937,-0.38525 -0.1695,-0.62011 -0.0176,-0.0649 -0.0292,-0.13135 -0.0356,-0.19824 l -0.0699,-0.76026 c -5e-4,-0.004 -5e-4,-0.008 -5e-4,-0.0118 l 0,-0.62354 c 0.001,-0.02 0.003,-0.0396 0.004,-0.0596 0.004,-0.0195 0.007,-0.0391 0.0125,-0.0586 l 0.0518,-0.18848 c 0.005,-0.0181 0.0112,-0.0312 0.0156,-0.04 0.01,-0.019 0.0215,-0.0347 0.0235,-0.0366 5e-4,-9.7e-4 0.001,-0.002 0.001,-0.002 0.0234,-0.0303 0.0556,-0.0688 0.0966,-0.11035 0.0566,-0.0571 0.105,-0.0952 0.13675,-0.11964 0.0522,-0.041 0.1005,-0.0791 0.17037,-0.11522 0.0454,-0.0239 0.11375,-0.0542 0.20313,-0.0752 0.0494,-0.0122 0.11525,-0.0269 0.19437,-0.0396 0.0659,-0.0102 0.21725,-0.0322 0.4135,-0.0317 l -0.007,0 c 0.19625,-4.9e-4 0.34713,0.0215 0.413,0.0317 0.0791,0.0127 0.14563,0.0273 0.19488,0.0396 0.0894,0.021 0.15725,0.0513 0.20312,0.0752 0.0699,0.0361 0.11813,0.0742 0.17038,0.11522 0.0312,0.0244 0.0801,0.0625 0.13675,0.11964 0.0405,0.0415 0.0728,0.0801 0.0968,0.11035 0,4.9e-4 8.7e-4,0.002 0.001,0.002 0.001,0.002 0.0138,0.0176 0.0235,0.0366 0.005,0.009 0.01,0.022 0.0156,0.04 l 0.0518,0.18848 c 0.004,0.0195 0.007,0.0391 0.0125,0.0586 10e-4,0.02 0.003,0.0396 0.004,0.0596 l 0,0.62354 c 0,0.004 -5e-4,0.008 -5e-4,0.0118 l -0.0699,0.76026 c -0.006,0.0669 -0.018,0.1333 -0.0361,0.19824 -0.06,0.23486 -0.11762,0.44336 -0.16887,0.62011 -0.0591,0.20363 -0.11138,0.38429 -0.19238,0.62013 -0.0786,0.22851 -0.15587,0.42822 -0.22412,0.59326 -0.0264,0.0791 -0.0645,0.15331 -0.11288,0.22118 l -0.0586,0.084 c -0.0689,0.0972 -0.17188,0.16455 -0.28863,0.18945 -0.0517,0.01 -0.14887,0.0298 -0.14887,0.0298 l -0.022,0 z" />
    <text
       sodipodi:linespacing="125%"
       id="text5380"
       y="269.73676"
       x="487.59961"
       style="font-style:normal;font-weight:normal;font-size:10px;line-height:125%;font-family:sans-serif;letter-spacing:0px;word-spacing:0px;fill:#000000;fill-opacity:1;stroke:none;stroke-width:1px;stroke-linecap:butt;stroke-linejoin:miter;stroke-miterlimit:4;stroke-dasharray:none;stroke-opacity:1"
       xml:space="preserve"><tspan
         y="269.73676"
         x="487.59961"
         id="tspan5382"
         sodipodi:role="line" /></text>
  </g>
</svg>
